<?xml version="1.0" encoding="UTF-8"?>
<svg id="Layer_1" data-name="Layer 1" xmlns="http://www.w3.org/2000/svg" viewBox="0 0 500 500">
  <defs>
    <style>
      .cls-1 {
        fill: #ffe0b2;
      }

      .cls-2 {
        fill: #fff;
      }

      .cls-3 {
        fill: #9e673c;
      }

      .cls-4 {
        fill: #bf8049;
      }

      .cls-5, .cls-6, .cls-7 {
        fill: #bf9f85;
      }

      .cls-8 {
        fill: #dea66c;
      }

      .cls-9, .cls-10, .cls-11 {
        fill: #212121;
      }

      .cls-10 {
        isolation: isolate;
        opacity: .5;
      }

      .cls-12 {
        opacity: .41;
      }

      .cls-13 {
        opacity: .59;
      }

      .cls-11 {
        fill-rule: evenodd;
      }

      .cls-6 {
        opacity: .9;
      }

      .cls-7 {
        opacity: .67;
      }
    </style>
  </defs>
  <path class="cls-2" d="M473.46,141.99l-.23,.11v228.32c0,4.16-2.33,7.97-6.05,9.89l-207.47,106.98c-.53,.28-1.08,.45-1.64,.52v.16s-5.21,2.01-15.04-2.04c-32.86-13.52-98.92-47.9-151.19-76.2-22.47-12.17-44.73-22.76-56.91-30.82-1.89-1.23-3.34-3.16-3.34-5.49V140.23s-2.88-14.47,7.22-20.4L246.56,12.9c3.8-2.17,7.77-1.54,12.63,.28,0,0,75.18,33.3,189.5,97.96,11.15,6.28,23.62,13.91,24.17,18.07,1.05,7.93,.81,12.11,.6,12.79Z"/>
  <g>
    <g>
      <path class="cls-8" d="M246.94,28.03L52.46,128.14c-9.46,5.55-6.75,19.1-6.75,19.1l207.01,106.19,206.64-104.54c.19-.64,.41-4.54-.56-11.97-.53-3.9-12.19-11.03-22.63-16.92C329.15,59.48,258.76,28.29,258.76,28.29c-4.54-1.69-8.25-2.29-11.82-.26Z"/>
      <path class="cls-4" d="M48.82,370.69c11.41,7.54,32.23,17.45,53.28,28.85,48.93,26.49,110.77,58.68,141.53,71.33,9.19,3.79,14.07,1.91,14.07,1.91,0,0-4.32-211.25-4.16-223.07,.08-4.95-5.97-11.71-10.28-14.48-6.68-4.28-21.16-10.96-21.16-10.96,0,0-50.73-25.22-101.39-51.78-24.09-12.65-44.43-25.59-66.3-36.25-3.98-1.95-8.74,.45-8.71,4.92v224.38c0,2.18,1.35,3.98,3.11,5.14Z"/>
      <path class="cls-3" d="M453.46,372l-194.22,100.15c-3.11,1.61-6.83-.64-6.83-4.16l.34-214.55c0-2.06-1.54-7.43-2.1-9.31-.53-1.88,1.31-5.67,3.04-6.53l194.22-100.03c5.1-2.63,11.22,1.09,11.22,6.83v218.34c0,3.9-2.18,7.47-5.67,9.27Z"/>
      <path class="cls-10" d="M352.07,205.96c11.29-5.82,100-53.24,100-58.46,0-4.28-85.36,40.94-85.36,40.94,0,0-106.45,54.44-108.18,59.06-1.69,4.58,83.52-36.4,93.54-41.54Z"/>
      <path class="cls-1" d="M385.28,168.7c-1.88-1.39-203.82-106.9-203.82-106.9l-62.59,32.27,206.79,106.45c17.86-9.19,46.23-23.83,60.49-31.14-.26-.26-.55-.49-.86-.68Z"/>
      <path class="cls-5" d="M386.14,169.34c-31.29,14.15-61.91,30.43-61.91,30.43,.79,.34,2.74,2.78,2.74,2.78-.11,4.35-.19,8.67-.3,13.02-.53,22.33-.83,44.69-1.58,67.01,2.51-1.5,5.55,1.8,7.84,0,3.53-2.78,11.03-15.01,12.16-15.38,1.5-.49,3.11-.11,4.65-.19,6.75-.38,21.88-14.15,25.1-14.78,3.11-.6,13.4,1.39,13.4,1.39,0,0-.79-68.1-.98-79.55-.08-3.26-1.13-4.73-1.13-4.73Z"/>
    </g>
    <path class="cls-7" d="M386.14,169.34c-31.29,14.15-61.91,30.43-61.91,30.43,.79,.34,2.74,2.78,2.74,2.78-.11,4.35-.19,8.67-.3,13.02-.53,22.33-.83,44.69-1.58,67.01,2.51-1.5,5.55,1.8,7.84,0,3.53-2.78,11.03-15.01,12.16-15.38,1.5-.49,3.11-.11,4.65-.19,6.75-.38,21.88-14.15,25.1-14.78,3.11-.6,13.4,1.39,13.4,1.39,0,0-.79-68.1-.98-79.55-.08-3.26-1.13-4.73-1.13-4.73Z"/>
    <g id="SVGRepo_iconCarrier" data-name="SVGRepo iconCarrier" class="cls-13">
      <path class="cls-9" d="M347.49,326.36c-.81,.41-1.58,.45-2.16,.11l-4.58-2.71c-1.22-.68-1.27-2.81-.12-4.75,1.15-1.95,3.08-2.98,4.3-2.3,.03,.01,.05,.03,.08,.04l2.41,1.43,7.12-11.7c1.18-1.94,3.11-2.93,4.31-2.22,1.2,.71,1.22,2.86,.04,4.8h0l-9.26,15.2c-.57,.93-1.34,1.68-2.15,2.1Zm56.99-30.27l9.27-15.21c1.16-1.95,1.11-4.08-.12-4.76-1.19-.66-3.07,.3-4.24,2.18l-7.14,11.71-2.41-1.43c-1.18-.74-3.11,.21-4.31,2.14-1.2,1.93-1.21,4.09-.03,4.83,.02,.02,.05,.03,.08,.04l4.59,2.71c1.19,.72,3.11-.26,4.29-2.19,0-.01,.01-.02,.02-.03Zm-96.62,7.17l15.45-18.74c2.84-3.44,3.69-8.07,1.89-10.34-.5-.63-1.16-1.03-1.95-1.18l-15.63-2.91c-2.86-.53-6.6,2.35-8.36,6.44-.6,1.4-.92,2.81-.91,4.09l.18,21.65c.04,3.74,2.79,5.37,6.15,3.64,1.13-.58,2.23-1.5,3.18-2.65Zm12.2-22.86l-15.45,18.74-.18-21.65,15.63,2.91Zm106.7-3.87c.11,13.11-9.38,28.69-21.16,34.74-10.6,5.42-19.65,1.36-21.27-9.53l-12.68,6.51c-1.42,12.45-10.32,25.72-20.9,31.17-10.58,5.41-19.61,1.35-21.22-9.53l-3.39,1.74c-5.91,3.04-11.27,3.07-15.15,.69l.28,34.17c.09,11.21,8.35,16.14,18.41,10.98l.24-.12c1.39-12.24,10.18-25.65,20.89-31.15,11.75-6.03,21.41-.28,21.52,12.82,.11,13.1-9.37,28.65-21.12,34.67-10.58,5.4-19.61,1.33-21.23-9.56l-.24,.12c-13.42,6.88-24.42,.31-24.54-14.65l-.39-48.12c-14.16,4.03-24.41-4.62-24.56-20.69-.15-18.67,13.34-40.87,30.09-49.51,16.76-8.64,30.53-.46,30.68,18.23,.13,18.59-13.17,40.61-29.84,49.37,1.46,7.17,7.7,9.66,14.91,5.97l3.39-1.74c1.39-12.24,10.17-25.66,20.89-31.16,10.58-5.42,19.63-1.37,21.24,9.52l12.68-6.51c1.42-12.45,10.33-25.74,20.93-31.21,11.78-6.06,21.45-.32,21.56,12.79Zm-90.98,101.22c.08,9.35,6.97,13.46,15.36,9.16,8.39-4.3,15.16-15.41,15.09-24.77-.08-9.35-6.98-13.46-15.37-9.16s-15.15,15.41-15.08,24.76Zm-24.97-65.48c13.41-6.9,24.22-24.67,24.1-39.62-.12-14.95-11.13-21.49-24.54-14.58s-24.2,24.67-24.08,39.61c.12,14.94,11.12,21.49,24.52,14.6Zm54.96-4.41c-.08-9.35-6.97-13.45-15.36-9.14-8.39,4.31-15.15,15.43-15.07,24.77,.08,9.34,6.97,13.45,15.36,9.14,8.39-4.31,15.16-15.43,15.08-24.78Zm54.88-28.19c-.08-9.36-6.99-13.46-15.4-9.14s-15.18,15.45-15.1,24.81,6.99,13.46,15.39,9.14c8.41-4.32,15.19-15.45,15.11-24.81Zm-78.79,94.96c.02,1.87,1.39,2.69,3.07,1.83s3.03-3.08,3.02-4.95-1.39-2.69-3.07-1.83-3.03,3.08-3.02,4.95Zm12.18-6.24c.02,1.87,1.39,2.69,3.07,1.83,1.68-.86,3.03-3.08,3.02-4.95-.02-1.87-1.39-2.69-3.07-1.83-1.68,.86-3.03,3.08-3.02,4.95Zm73.18-37.51c.11,13.11-9.39,28.69-21.17,34.72-10.61,5.41-19.66,1.33-21.28-9.57-.04,.03-.08,.07-.13,.1l-3.08,1.7-.1,.05c-1.68,.81-3.03-.06-3-1.96,.03-1.78,1.26-3.86,2.84-4.77l3.08-1.7c.11-.07,.21-.07,.32-.12,1.39-12.47,10.32-25.8,20.94-31.27,11.78-6.04,21.46-.3,21.57,12.82Zm-6.11,3.13c-.08-9.36-6.99-13.47-15.4-9.16-8.41,4.31-15.19,15.44-15.11,24.79,.08,9.36,6.99,13.47,15.39,9.16,8.41-4.31,15.2-15.44,15.12-24.8Z"/>
    </g>
    <g id="SVGRepo_iconCarrier-2" data-name="SVGRepo iconCarrier" class="cls-12">
      <path class="cls-11" d="M130.09,222.92c-10.3-5.46-18.71-.98-18.76,10.05l-.07,13.87,32.43,17.09v3.86s-46.92-24.71-46.92-24.71c-10.42-5.49-18.96-.93-19.07,10.23l-.29,30.47c-.11,11.29,8.35,24.92,18.87,30.39l10.97,5.71,.09-17.32c.06-11.26,8.56-15.93,18.98-10.47l34.68,18.16c8.75,4.58,15.79,.61,15.74-8.83l-.16-33.99c-.05-11.02-8.38-24.32-18.61-29.74l-27.88-14.78Zm-4.37,22.28c3.58,1.89,6.48,.32,6.49-3.51,0-3.82-2.88-8.44-6.45-10.33-3.57-1.89-6.48-.33-6.49,3.49-.01,3.82,2.88,8.46,6.46,10.35Z"/>
      <path class="cls-11" d="M158.28,385.28c10.45,5.41,18.87,.51,18.82-10.89l-.07-14.24-32.61-16.97v-3.95s47.02,24.48,47.02,24.48c10.34,5.38,18.62,.57,18.51-10.7l-.29-30.44c-.11-11.14-8.47-24.5-18.7-29.89l-10.71-5.64,.09,17.04c.06,11.17-8.26,15.87-18.6,10.46l-34.69-18.16c-8.82-4.61-16.01-.65-16.05,8.88l-.17,34.74c-.05,11.41,8.45,25.11,18.97,30.55l28.49,14.74Zm4.3-23.17c-3.61-1.87-6.53-.2-6.52,3.74,0,3.95,2.94,8.67,6.56,10.54,3.61,1.87,6.53,.19,6.51-3.76-.01-3.94-2.95-8.65-6.55-10.52Z"/>
    </g>
    <path class="cls-6" d="M386.14,169.34c-31.29,14.15-61.91,30.43-61.91,30.43,.79,.34,2.74,2.78,2.74,2.78-.11,4.35-.19,8.67-.3,13.02-.53,22.33-.83,44.69-1.58,67.01,2.51-1.5,5.55,1.8,7.84,0,3.53-2.78,11.03-15.01,12.16-15.38,1.5-.49,3.11-.11,4.65-.19,6.75-.38,21.88-14.15,25.1-14.78,3.11-.6,13.4,1.39,13.4,1.39,0,0-.79-68.1-.98-79.55-.08-3.26-1.13-4.73-1.13-4.73Z"/>
  </g>
</svg>
