<?xml version="1.0" encoding="UTF-8"?>
<svg id="Layer_1" data-name="Layer 1" xmlns="http://www.w3.org/2000/svg" xmlns:xlink="http://www.w3.org/1999/xlink" viewBox="0 0 1200 113.98">
  <defs>
    <style>
      .cls-1 {
        fill: url(#linear-gradient);
      }

      .cls-2 {
        opacity: .06;
      }

      .cls-3, .cls-4 {
        fill: #f4b400;
      }

      .cls-5 {
        fill: #fdd835;
      }

      .cls-6 {
        fill: #fff;
      }

      .cls-7 {
        fill: #ffee58;
      }

      .cls-4 {
        stroke: #f4b400;
        stroke-miterlimit: 10;
      }
    </style>
    <linearGradient id="linear-gradient" x1="271.51" y1="385.48" x2="928.49" y2="-271.51" gradientUnits="userSpaceOnUse">
      <stop offset="0" stop-color="#5538b3"/>
      <stop offset="1" stop-color="#8e03fc"/>
    </linearGradient>
  </defs>
  <rect class="cls-1" width="1200" height="113.98"/>
  <g class="cls-2">
    <path class="cls-6" d="M820.54-13.16c-36.11,15.74-27,30.5-27,30.5l7.15,16.29,34.46-15.02,2.13,4.9-48.15,20.98s-24.26,7.43-8.3,44.06c15.96,36.63,35.56,26.54,35.56,26.54l12.04-5.24-7.41-17s-9.48-19.99,11.01-28.92,34.18-14.89,34.18-14.89c0,0,19.34-8.06,11.07-27.02s-13.67-31.37-13.67-31.37c0,0-5.35-20.25-43.1-3.81Zm-14.22,19.25c3.43-1.49,7.41,.08,8.92,3.53s-.06,7.44-3.48,8.93-7.41-.08-8.92-3.53,.06-7.44,3.48-8.93Z"/>
    <path class="cls-6" d="M883.55,128.65c36.11-15.74,27-30.5,27-30.5l-7.15-16.29-34.46,15.02-2.13-4.9,48.15-20.98s24.26-7.43,8.3-44.07C907.29-9.69,887.69,.39,887.69,.39l-12.04,5.25,7.41,17s9.48,19.99-11.01,28.92c-20.5,8.93-34.18,14.89-34.18,14.89,0,0-19.34,8.06-11.08,27.02,8.26,18.97,13.67,31.37,13.67,31.37,0,0,5.35,20.25,43.1,3.81Zm14.22-19.25c-3.43,1.49-7.41-.08-8.92-3.53s.06-7.44,3.48-8.93,7.41,.08,8.92,3.53-.06,7.44-3.48,8.93Z"/>
  </g>
  <g id="SVGRepo_iconCarrier" data-name="SVGRepo iconCarrier" class="cls-2">
    <path class="cls-6" d="M473.22,62.18c-.91,.4-1.93,.43-2.86,.07l-7.35-2.83c-1.94-.71-2.94-2.86-2.23-4.8,.71-1.94,2.86-2.94,4.8-2.23,.04,.01,.08,.03,.12,.05l3.87,1.49,4.51-11.65c.74-1.93,2.91-2.89,4.84-2.15,1.93,.74,2.89,2.91,2.15,4.84h0l-5.86,15.14c-.36,.92-1.07,1.67-1.98,2.07Zm63.57-29.32l5.86-15.13c.71-1.94-.28-4.09-2.22-4.8-1.89-.69-4,.24-4.75,2.1l-4.51,11.65-3.87-1.49c-1.92-.78-4.1,.15-4.87,2.06-.78,1.92,.15,4.1,2.06,4.87,.04,.02,.08,.03,.12,.05l7.36,2.83c1.91,.75,4.07-.2,4.82-2.11,0-.01,0-.02,.01-.03Zm-127.09,5.18l12.7-18.59c2.33-3.41,1.46-8.07-1.95-10.4-.94-.64-2.02-1.07-3.15-1.23l-22.37-3.28c-4.09-.6-7.89,2.23-8.49,6.32-.2,1.4-.01,2.82,.56,4.11l9.68,21.87c1.68,3.78,6.11,5.48,9.89,3.8,1.27-.56,2.35-1.47,3.14-2.61Zm6.52-22.82l-12.7,18.6-9.68-21.87,22.37,3.28Zm142.04-1.59c5.84,13.21-.15,28.71-13.36,34.55-11.9,5.24-25.85,.96-32.76-10.06l-14.24,6.3c3.5,12.53-2.71,25.72-14.6,31.01-11.9,5.24-25.85,.96-32.76-10.06l-3.82,1.69c-6.65,2.94-13.87,2.87-20.14,.38l15.26,34.51c5.01,11.32,18.29,16.46,29.61,11.45l.27-.12c-3.46-12.33,2.55-25.68,14.6-31.01,13.21-5.84,28.71,.15,34.55,13.36,5.84,13.21-.15,28.71-13.36,34.55-11.9,5.24-25.85,.96-32.76-10.06l-.27,.12c-15.1,6.68-32.81-.17-39.49-15.27l-21.5-48.6c-17.37,3.77-35-5.18-42.21-21.42-8.35-18.87,.21-41.01,19.08-49.36,18.87-8.35,41.01,.21,49.36,19.08,8.27,18.77-.09,40.7-18.76,49.2,5.09,7.27,14.61,9.92,22.72,6.33l3.82-1.69c-3.46-12.33,2.55-25.68,14.6-31.01,11.9-5.24,25.85-.96,32.76,10.06l14.24-6.3c-3.5-12.53,2.71-25.72,14.6-31.01,13.21-5.84,28.71,.15,34.55,13.36Zm-78.44,100.16c4.17,9.43,15.25,13.71,24.68,9.54,9.43-4.17,13.71-15.25,9.54-24.68-4.17-9.43-15.25-13.71-24.68-9.54-9.43,4.17-13.71,15.25-9.54,24.68Zm-62.19-66.6c15.1-6.68,21.95-24.39,15.27-39.49-6.68-15.1-24.39-21.95-39.49-15.27-15.1,6.68-21.95,24.39-15.27,39.49s24.39,21.95,39.49,15.27Zm72.19-3.29c-4.17-9.43-15.25-13.71-24.68-9.54s-13.71,15.25-9.54,24.68c4.17,9.43,15.25,13.71,24.68,9.54s13.71-15.25,9.54-24.68Zm61.6-27.25c-4.17-9.43-15.25-13.71-24.68-9.54-9.43,4.17-13.71,15.25-9.54,24.68s15.25,13.71,24.68,9.54c9.43-4.17,13.71-15.25,9.54-24.68Zm-64.75,94.11c.84,1.89,3.05,2.74,4.94,1.91s2.74-3.05,1.91-4.94-3.05-2.74-4.94-1.91-2.74,3.05-1.91,4.94Zm13.69-6.05c.84,1.89,3.05,2.74,4.94,1.91s2.74-3.05,1.91-4.94-3.05-2.74-4.94-1.91-2.74,3.05-1.91,4.94Zm82.13-36.33c5.84,13.21-.15,28.71-13.36,34.55-11.91,5.24-25.86,.95-32.77-10.07-.04,.03-.07,.07-.13,.1l-3.41,1.65-.12,.05c-1.91,.79-4.1-.12-4.89-2.03-.74-1.8,.02-3.87,1.75-4.75l3.41-1.65c.12-.07,.26-.06,.38-.11-3.55-12.55,2.66-25.79,14.58-31.09,13.21-5.84,28.71,.15,34.55,13.36Zm-6.84,3.03c-4.17-9.43-15.25-13.71-24.68-9.54s-13.71,15.25-9.54,24.68,15.25,13.71,24.68,9.54c9.43-4.17,13.71-15.25,9.54-24.68Z"/>
  </g>
  <g>
    <g>
      <path class="cls-6" d="M235.05,72.98c-2.93,0-5.39-.65-7.38-1.95-1.99-1.3-3.49-3.11-4.5-5.41-1.01-2.3-1.51-4.96-1.51-7.98s.5-5.67,1.51-7.98c1.01-2.3,2.51-4.11,4.5-5.41,1.99-1.3,4.45-1.95,7.38-1.95,3.42,0,6.2,.89,8.34,2.66,2.13,1.77,3.58,4.15,4.35,7.12l-2.43,.59c-.63-2.47-1.8-4.43-3.51-5.88s-3.96-2.18-6.74-2.18c-2.41,0-4.42,.55-6.02,1.66-1.6,1.1-2.81,2.64-3.62,4.6-.81,1.96-1.22,4.22-1.24,6.77-.03,2.55,.36,4.8,1.18,6.76,.81,1.96,2.03,3.49,3.65,4.6,1.62,1.11,3.64,1.67,6.05,1.67,2.78,0,5.03-.73,6.74-2.19,1.71-1.46,2.88-3.42,3.51-5.87l2.43,.59c-.76,2.97-2.21,5.35-4.35,7.12-2.13,1.77-4.91,2.66-8.34,2.66Z"/>
      <path class="cls-6" d="M252.23,72.36v-22.09h2.15v5.3l-.53-.7c.25-.63,.56-1.21,.93-1.75,.37-.54,.76-.98,1.16-1.32,.59-.54,1.27-.96,2.07-1.24,.79-.28,1.59-.44,2.39-.49,.8-.05,1.53,.02,2.19,.19v2.23c-.87-.2-1.8-.25-2.78-.12-.98,.12-1.9,.54-2.76,1.27-.75,.66-1.3,1.42-1.64,2.28s-.56,1.77-.65,2.72c-.1,.95-.14,1.87-.14,2.77v10.94h-2.37Z"/>
      <path class="cls-6" d="M275.16,72.98c-2.11,0-3.94-.47-5.48-1.42-1.54-.95-2.73-2.29-3.58-4.03-.85-1.74-1.27-3.79-1.27-6.17s.42-4.5,1.26-6.25c.84-1.75,2.02-3.1,3.56-4.04,1.53-.94,3.36-1.41,5.47-1.41s3.97,.49,5.49,1.46c1.52,.98,2.68,2.38,3.48,4.22s1.18,4.06,1.14,6.65h-2.45v-.82c-.07-3.03-.75-5.33-2.05-6.91-1.3-1.58-3.15-2.37-5.56-2.37s-4.42,.82-5.78,2.46-2.04,3.96-2.04,6.96,.68,5.28,2.04,6.91,3.27,2.45,5.74,2.45c1.7,0,3.19-.4,4.47-1.2,1.27-.8,2.29-1.94,3.04-3.43l2.13,.94c-.89,1.91-2.17,3.38-3.85,4.42-1.68,1.04-3.59,1.55-5.75,1.55Zm-8.71-10.98v-2.13h17.45v2.13h-17.45Z"/>
      <path class="cls-6" d="M295.72,72.98c-1.7,0-3.12-.3-4.24-.9-1.12-.6-1.97-1.39-2.53-2.38-.56-.99-.84-2.06-.84-3.22,0-1.25,.26-2.3,.79-3.15s1.23-1.53,2.11-2.05c.88-.52,1.85-.91,2.92-1.17,1.21-.27,2.52-.51,3.93-.71,1.4-.2,2.74-.37,4.02-.52,1.27-.15,2.31-.28,3.12-.39l-.86,.51c.05-2.39-.39-4.16-1.34-5.33s-2.62-1.75-5-1.75c-1.68,0-3.06,.38-4.14,1.13-1.08,.76-1.84,1.93-2.28,3.51l-2.41-.68c.5-2,1.52-3.54,3.05-4.62,1.53-1.08,3.48-1.62,5.87-1.62,2.03,0,3.74,.4,5.12,1.19,1.38,.79,2.35,1.9,2.89,3.33,.23,.59,.39,1.27,.47,2.06,.08,.78,.12,1.57,.12,2.36v13.77h-2.15v-5.81l.8,.21c-.67,1.99-1.83,3.53-3.5,4.6-1.66,1.08-3.63,1.62-5.91,1.62Zm.12-2.17c1.5,0,2.82-.27,3.95-.81,1.13-.54,2.05-1.3,2.75-2.27,.7-.98,1.15-2.12,1.34-3.45,.14-.74,.21-1.53,.23-2.39,.01-.86,.02-1.49,.02-1.9l1.02,.65c-.89,.11-1.95,.22-3.18,.35s-2.49,.27-3.77,.45c-1.28,.18-2.44,.4-3.48,.67-.64,.18-1.29,.43-1.93,.77-.65,.33-1.19,.79-1.62,1.38-.43,.59-.64,1.33-.64,2.23,0,.67,.17,1.34,.5,2,.33,.67,.89,1.22,1.67,1.66s1.83,.65,3.15,.65Z"/>
      <path class="cls-6" d="M309.34,52.42v-2.15h14.18v2.15h-14.18Zm14.18,19.94c-1.17,.26-2.33,.36-3.48,.3s-2.17-.32-3.06-.78c-.89-.46-1.56-1.16-2.01-2.12-.37-.78-.57-1.56-.61-2.35s-.06-1.7-.06-2.72v-20.56h2.37v20.52c0,.93,0,1.7,.03,2.3s.16,1.16,.42,1.67c.49,.94,1.27,1.51,2.33,1.71,1.06,.2,2.42,.17,4.07-.09v2.13Z"/>
      <path class="cls-6" d="M336.14,72.98c-2.11,0-3.94-.47-5.48-1.42-1.54-.95-2.73-2.29-3.58-4.03-.85-1.74-1.27-3.79-1.27-6.17s.42-4.5,1.26-6.25,2.03-3.1,3.56-4.04c1.53-.94,3.36-1.41,5.47-1.41s3.97,.49,5.49,1.46c1.52,.98,2.68,2.38,3.48,4.22,.8,1.84,1.18,4.06,1.14,6.65h-2.46v-.82c-.07-3.03-.75-5.33-2.04-6.91-1.3-1.58-3.15-2.37-5.56-2.37s-4.42,.82-5.78,2.46c-1.36,1.64-2.04,3.96-2.04,6.96s.68,5.28,2.04,6.91c1.36,1.64,3.27,2.45,5.74,2.45,1.7,0,3.19-.4,4.47-1.2s2.29-1.94,3.04-3.43l2.13,.94c-.89,1.91-2.17,3.38-3.85,4.42-1.68,1.04-3.59,1.55-5.75,1.55Zm-8.71-10.98v-2.13h17.45v2.13h-17.45Z"/>
      <path class="cls-6" d="M371.05,72.98c-1.91,0-3.7-.34-5.37-1.01-1.67-.68-3.14-1.67-4.4-2.98-1.26-1.31-2.25-2.92-2.96-4.82s-1.06-4.08-1.06-6.54c0-3.22,.6-5.97,1.8-8.25s2.84-4.04,4.93-5.26c2.09-1.22,4.44-1.83,7.06-1.83,3.63,0,6.5,.84,8.62,2.53,2.12,1.68,3.56,4.05,4.31,7.09l-5.03,.8c-.56-1.75-1.47-3.14-2.74-4.18-1.27-1.04-2.88-1.56-4.85-1.56-1.98-.03-3.62,.4-4.93,1.29-1.31,.89-2.29,2.13-2.96,3.74-.66,1.61-.99,3.49-.99,5.65s.33,4.03,.98,5.61c.66,1.59,1.64,2.83,2.96,3.71,1.32,.89,2.96,1.34,4.94,1.37,1.49,.01,2.79-.26,3.91-.81,1.12-.55,2.03-1.39,2.74-2.52s1.19-2.53,1.43-4.22h-5.2v-3.87h10.43c.03,.22,.05,.54,.06,.96s.02,.67,.02,.76c0,2.78-.55,5.25-1.65,7.42-1.1,2.16-2.67,3.86-4.71,5.08-2.04,1.23-4.49,1.84-7.34,1.84Z"/>
      <path class="cls-6" d="M389.26,46.92v-4.52h4.93v4.52h-4.93Zm0,25.45v-22.09h4.93v22.09h-4.93Z"/>
      <path class="cls-6" d="M397.87,54.14v-3.87h15.4v3.87h-15.4Zm15.4,18.23c-1.46,.27-2.89,.39-4.29,.36-1.4-.03-2.65-.29-3.75-.78-1.11-.48-1.94-1.25-2.52-2.3-.5-.95-.77-1.93-.8-2.92s-.04-2.12-.04-3.38v-19.21h4.91v18.92c0,.89,.01,1.66,.03,2.33,.02,.67,.16,1.21,.42,1.64,.49,.82,1.28,1.28,2.35,1.37,1.08,.1,2.3,.04,3.68-.16v4.13Z"/>
      <path class="cls-6" d="M418.04,72.36v-29.46h4.93v12.4h13.95v-12.4h4.91v29.46h-4.91v-12.44h-13.95v12.44h-4.93Z"/>
      <path class="cls-6" d="M455.84,73c-1.64,0-2.99-.27-4.05-.82-1.06-.54-1.91-1.24-2.54-2.09s-1.09-1.75-1.39-2.7c-.3-.95-.5-1.86-.58-2.71-.09-.85-.13-1.54-.13-2.08v-12.33h4.99v10.64c0,.68,.05,1.45,.14,2.3,.1,.85,.32,1.67,.67,2.45s.87,1.43,1.55,1.93c.69,.5,1.62,.76,2.79,.76,.63,0,1.25-.1,1.86-.31,.61-.2,1.17-.55,1.67-1.05s.9-1.18,1.2-2.06c.3-.87,.45-1.98,.45-3.31l2.92,1.25c0,1.88-.36,3.59-1.09,5.11s-1.8,2.74-3.22,3.65c-1.42,.91-3.16,1.36-5.24,1.36Zm7.22-.63v-6.85h-.59v-15.24h4.95v22.09h-4.36Z"/>
      <path class="cls-6" d="M473.11,72.36v-29.46h4.97v13.95h-.61v15.5h-4.36Zm10.66,.61c-2.16,0-3.96-.51-5.42-1.53-1.46-1.02-2.56-2.42-3.29-4.18-.74-1.77-1.1-3.75-1.1-5.94s.37-4.21,1.1-5.97c.74-1.76,1.82-3.15,3.24-4.16,1.42-1.02,3.19-1.52,5.29-1.52s3.9,.51,5.43,1.52c1.53,1.02,2.72,2.4,3.57,4.15,.85,1.75,1.27,3.75,1.27,5.98s-.42,4.19-1.25,5.95c-.83,1.76-2,3.15-3.52,4.17-1.51,1.02-3.29,1.53-5.32,1.53Zm-.76-4.42c1.28,0,2.34-.32,3.17-.96,.83-.64,1.45-1.51,1.85-2.61,.4-1.1,.6-2.32,.6-3.67s-.21-2.55-.61-3.65-1.04-1.97-1.9-2.62c-.86-.65-1.95-.97-3.27-.97s-2.28,.3-3.07,.91c-.79,.61-1.37,1.45-1.75,2.54-.38,1.08-.56,2.35-.56,3.79s.19,2.69,.56,3.78,.97,1.94,1.78,2.55,1.88,.91,3.2,.91Z"/>
      <path class="cls-6" d="M504.48,72.36l9.29-29.46h7.22l9.29,29.46h-5.07l-8.43-26.43h1.11l-8.33,26.43h-5.07Zm5.17-6.38v-4.6h15.46v4.6h-15.46Z"/>
      <path class="cls-6" d="M543.55,72.98c-2.28,0-4.22-.51-5.83-1.52-1.61-1.02-2.84-2.4-3.69-4.16-.85-1.76-1.29-3.75-1.3-5.97,.01-2.26,.46-4.27,1.34-6.02,.88-1.75,2.13-3.13,3.75-4.13,1.62-1,3.55-1.5,5.79-1.5,2.51,0,4.63,.63,6.37,1.89,1.74,1.26,2.87,2.98,3.41,5.17l-4.91,1.33c-.38-1.19-1.02-2.11-1.9-2.77-.89-.66-1.9-.99-3.03-.99-1.28,0-2.34,.3-3.17,.91-.83,.61-1.45,1.44-1.84,2.51-.4,1.06-.59,2.27-.59,3.62,0,2.1,.47,3.8,1.41,5.09,.94,1.29,2.34,1.94,4.19,1.94,1.31,0,2.34-.3,3.1-.9,.76-.6,1.33-1.47,1.71-2.6l5.03,1.12c-.68,2.25-1.88,3.98-3.58,5.19-1.71,1.21-3.79,1.81-6.26,1.81Z"/>
      <path class="cls-6" d="M555.05,54.14v-3.87h15.4v3.87h-15.4Zm15.4,18.23c-1.46,.27-2.89,.39-4.29,.36-1.4-.03-2.65-.29-3.75-.78-1.11-.48-1.94-1.25-2.52-2.3-.5-.95-.77-1.93-.8-2.92s-.04-2.12-.04-3.38v-19.21h4.91v18.92c0,.89,.01,1.66,.03,2.33,.02,.67,.16,1.21,.42,1.64,.49,.82,1.28,1.28,2.35,1.37,1.08,.1,2.3,.04,3.68-.16v4.13Z"/>
      <path class="cls-6" d="M575.63,46.92v-4.52h4.93v4.52h-4.93Zm0,25.45v-22.09h4.93v22.09h-4.93Z"/>
      <path class="cls-6" d="M596.45,72.98c-2.21,0-4.14-.5-5.79-1.49-1.65-1-2.93-2.37-3.83-4.12-.91-1.75-1.36-3.77-1.36-6.04s.46-4.35,1.39-6.1c.93-1.75,2.22-3.11,3.87-4.09,1.65-.98,3.56-1.47,5.73-1.47s4.16,.5,5.81,1.49c1.65,1,2.93,2.37,3.85,4.12,.91,1.75,1.37,3.77,1.37,6.04s-.46,4.31-1.38,6.07c-.92,1.75-2.21,3.12-3.86,4.11-1.65,.99-3.58,1.48-5.79,1.48Zm0-4.62c1.96,0,3.42-.66,4.38-1.96,.96-1.31,1.43-3,1.43-5.07s-.48-3.85-1.45-5.12c-.97-1.27-2.42-1.91-4.36-1.91-1.32,0-2.41,.3-3.26,.89-.85,.59-1.48,1.42-1.89,2.47-.41,1.06-.61,2.28-.61,3.67,0,2.14,.49,3.85,1.46,5.12,.97,1.28,2.41,1.91,4.31,1.91Z"/>
      <path class="cls-6" d="M611.94,72.36v-22.09h4.4v6.85h.59v15.24h-4.99Zm15.32,0v-10.64c0-.7-.05-1.47-.14-2.31-.1-.85-.32-1.66-.67-2.44s-.87-1.43-1.55-1.93c-.69-.5-1.62-.76-2.79-.76-.63,0-1.25,.1-1.86,.31-.61,.2-1.17,.56-1.67,1.05-.5,.5-.9,1.18-1.2,2.04-.3,.87-.45,1.97-.45,3.32l-2.92-1.25c0-1.88,.37-3.59,1.09-5.11s1.8-2.74,3.22-3.65c1.42-.91,3.16-1.36,5.24-1.36,1.64,0,2.99,.27,4.05,.82,1.06,.54,1.91,1.24,2.54,2.09,.63,.85,1.09,1.75,1.39,2.7,.3,.96,.49,1.86,.58,2.71,.09,.85,.13,1.54,.13,2.08v12.33h-4.99Z"/>
      <path class="cls-6" d="M646.1,72.98c-2.73,0-4.94-.61-6.65-1.84-1.71-1.23-2.74-2.95-3.11-5.17l5.03-.78c.26,1.09,.83,1.95,1.72,2.58,.89,.63,2,.94,3.35,.94,1.19,0,2.1-.24,2.75-.71s.97-1.12,.97-1.93c0-.5-.12-.91-.36-1.22-.24-.31-.76-.6-1.57-.89s-2.04-.65-3.7-1.08c-1.85-.49-3.33-1.02-4.42-1.58-1.09-.57-1.88-1.24-2.35-2.02-.48-.78-.72-1.72-.72-2.82,0-1.38,.36-2.58,1.08-3.6,.72-1.02,1.73-1.81,3.03-2.36,1.29-.55,2.82-.83,4.58-.83s3.24,.27,4.57,.8c1.33,.53,2.4,1.29,3.22,2.27,.82,.98,1.32,2.13,1.51,3.46l-5.03,.9c-.12-.94-.55-1.68-1.28-2.23-.73-.54-1.7-.85-2.92-.92-1.16-.07-2.09,.11-2.8,.52s-1.06,1-1.06,1.75c0,.42,.14,.78,.43,1.08s.86,.6,1.73,.9c.87,.3,2.16,.67,3.88,1.1,1.76,.45,3.17,.96,4.22,1.54s1.82,1.27,2.29,2.08c.47,.8,.71,1.78,.71,2.92,0,2.22-.81,3.97-2.42,5.24-1.62,1.27-3.85,1.9-6.7,1.9Z"/>
      <path class="cls-6" d="M679.27,72.98c-2.21,0-4.17-.46-5.88-1.38-1.71-.92-3.05-2.22-4.03-3.89-.97-1.67-1.46-3.63-1.46-5.88v-18.92h2.37v18.43c0,1.68,.28,3.11,.85,4.31,.57,1.19,1.3,2.17,2.21,2.92,.91,.75,1.88,1.3,2.92,1.66s2.05,.53,3.02,.53,1.98-.18,3.03-.53c1.05-.35,2.02-.91,2.92-1.66,.9-.75,1.63-1.72,2.2-2.92,.57-1.19,.85-2.63,.85-4.31v-18.43h2.37v18.92c0,2.24-.49,4.19-1.46,5.86-.98,1.67-2.32,2.97-4.03,3.9-1.71,.93-3.67,1.39-5.88,1.39Z"/>
      <path class="cls-6" d="M704.54,72.94c-2.55,0-4.65-.54-6.31-1.62s-2.68-2.58-3.08-4.5l2.41-.41c.34,1.31,1.15,2.35,2.41,3.13s2.82,1.17,4.66,1.17,3.28-.39,4.36-1.17,1.62-1.84,1.62-3.19c0-.74-.17-1.34-.5-1.81-.33-.47-.99-.9-1.97-1.3-.98-.4-2.44-.86-4.38-1.39-2.05-.55-3.64-1.09-4.8-1.64-1.15-.54-1.96-1.17-2.43-1.86-.47-.7-.71-1.55-.71-2.56,0-1.21,.35-2.28,1.04-3.2,.7-.92,1.67-1.64,2.92-2.16s2.69-.78,4.33-.78,3.11,.27,4.42,.81c1.31,.54,2.37,1.29,3.17,2.25,.8,.96,1.27,2.08,1.39,3.34l-2.41,.45c-.23-1.42-.95-2.54-2.15-3.37-1.2-.83-2.7-1.24-4.5-1.26-1.7-.03-3.1,.31-4.17,1.01s-1.62,1.63-1.62,2.77c0,.65,.19,1.21,.56,1.67,.37,.46,1.04,.88,1.99,1.26,.95,.38,2.3,.79,4.05,1.23,2.13,.55,3.79,1.1,4.98,1.68,1.19,.57,2.04,1.24,2.53,2.01,.49,.77,.74,1.72,.74,2.85,0,2.04-.76,3.65-2.28,4.82s-3.61,1.75-6.27,1.75Z"/>
      <path class="cls-6" d="M718.04,45.81v-3.01h2.35v3.01h-2.35Zm0,26.55v-22.09h2.35v22.09h-2.35Z"/>
      <path class="cls-6" d="M726.52,72.36v-22.09h2.15v4.97h.22v17.12h-2.37Zm16.18,0v-11.5c0-1.39-.14-2.63-.42-3.72-.28-1.09-.7-2.02-1.27-2.78-.57-.76-1.28-1.34-2.13-1.74-.85-.4-1.86-.59-3.02-.59s-2.24,.21-3.12,.62c-.88,.42-1.6,1-2.17,1.75-.57,.75-.99,1.64-1.27,2.67-.28,1.03-.42,2.15-.42,3.36l-1.86-.22c0-2.39,.41-4.35,1.22-5.9s1.91-2.69,3.28-3.44c1.38-.74,2.93-1.11,4.64-1.11,1.21,0,2.3,.18,3.26,.53,.96,.35,1.8,.86,2.51,1.5s1.29,1.41,1.76,2.29c.46,.88,.81,1.84,1.03,2.89,.22,1.05,.34,2.15,.34,3.29v12.09h-2.37Z"/>
      <path class="cls-6" d="M758.88,72.98c-2.09,0-3.85-.51-5.29-1.54-1.44-1.03-2.54-2.43-3.29-4.19-.76-1.77-1.13-3.75-1.13-5.96s.38-4.15,1.12-5.91c.75-1.76,1.83-3.15,3.24-4.17,1.41-1.02,3.12-1.53,5.12-1.53s3.8,.5,5.22,1.51c1.42,1.01,2.49,2.39,3.21,4.14,.72,1.75,1.08,3.74,1.08,5.96s-.36,4.19-1.08,5.95c-.72,1.76-1.77,3.16-3.15,4.19-1.38,1.04-3.06,1.55-5.05,1.55Zm.1,9.82c-1.09,0-2.18-.16-3.26-.48s-2.1-.84-3.04-1.55c-.94-.72-1.74-1.67-2.39-2.85l2.13-1.27c.67,1.36,1.62,2.34,2.84,2.92,1.23,.59,2.47,.88,3.74,.88,1.79,0,3.2-.33,4.24-.99,1.04-.66,1.79-1.65,2.24-2.97,.45-1.32,.67-2.95,.67-4.9v-5.79h.25v-15.53h2.15v21.31c0,.65-.01,1.28-.04,1.88-.03,.6-.09,1.2-.18,1.8-.25,1.71-.75,3.11-1.51,4.22-.76,1.11-1.8,1.94-3.1,2.49-1.3,.54-2.88,.82-4.74,.82Zm.04-12.07c1.65,0,3.02-.41,4.12-1.24s1.92-1.95,2.46-3.38c.54-1.42,.81-3.04,.81-4.84s-.27-3.43-.82-4.85c-.54-1.42-1.36-2.53-2.45-3.32s-2.45-1.2-4.07-1.2-3.06,.41-4.15,1.24c-1.09,.83-1.9,1.94-2.43,3.35-.53,1.41-.8,3-.8,4.78s.28,3.39,.83,4.82c.55,1.42,1.37,2.55,2.46,3.39s2.44,1.25,4.06,1.25Z"/>
      <path class="cls-6" d="M782.47,72.36v-29.46h12.17c.29,0,.66,0,1.11,.03,.45,.02,.87,.06,1.25,.13,1.71,.26,3.11,.83,4.22,1.7,1.11,.87,1.94,1.97,2.47,3.3,.54,1.33,.81,2.81,.81,4.43s-.27,3.08-.82,4.41c-.55,1.33-1.37,2.43-2.49,3.3-1.11,.87-2.51,1.44-4.2,1.7-.38,.05-.8,.09-1.26,.12s-.82,.04-1.09,.04h-7.24v10.29h-4.93Zm4.93-14.89h7.04c.27,0,.58-.01,.92-.04,.34-.03,.65-.08,.94-.16,.82-.21,1.46-.57,1.93-1.08,.47-.52,.8-1.1,1-1.76,.2-.65,.3-1.29,.3-1.92s-.1-1.27-.3-1.93c-.2-.66-.53-1.25-1-1.77-.47-.52-1.11-.88-1.93-1.08-.29-.08-.6-.13-.94-.15-.34-.02-.65-.03-.92-.03h-7.04v9.94Z"/>
      <path class="cls-6" d="M811.5,82.18l4.25-11.68,.08,3.44-9.63-23.67h5.13l6.83,17.51h-1.31l6.65-17.51h4.93l-12.31,31.91h-4.62Z"/>
      <path class="cls-6" d="M830.66,54.14v-3.87h15.4v3.87h-15.4Zm15.4,18.23c-1.46,.27-2.89,.39-4.29,.36-1.4-.03-2.65-.29-3.75-.78-1.11-.48-1.94-1.25-2.52-2.3-.5-.95-.77-1.93-.8-2.92s-.04-2.12-.04-3.38v-19.21h4.91v18.92c0,.89,.01,1.66,.03,2.33,.02,.67,.16,1.21,.42,1.64,.49,.82,1.28,1.28,2.35,1.37,1.08,.1,2.3,.04,3.68-.16v4.13Z"/>
      <path class="cls-6" d="M850.79,72.36v-29.46h4.4v15.5h.59v13.95h-4.99Zm15.32,0v-10.64c0-.7-.05-1.47-.14-2.31-.1-.85-.32-1.66-.67-2.44s-.87-1.43-1.55-1.93c-.69-.5-1.62-.76-2.79-.76-.63,0-1.25,.1-1.86,.31-.61,.2-1.17,.56-1.67,1.05-.5,.5-.9,1.18-1.2,2.04-.3,.87-.45,1.97-.45,3.32l-2.92-1.25c0-1.88,.37-3.59,1.09-5.11s1.8-2.74,3.22-3.65c1.42-.91,3.16-1.36,5.24-1.36,1.64,0,2.99,.27,4.05,.82,1.06,.54,1.91,1.24,2.54,2.09,.63,.85,1.09,1.75,1.39,2.7,.3,.96,.49,1.86,.58,2.71,.09,.85,.13,1.54,.13,2.08v12.33h-4.99Z"/>
      <path class="cls-6" d="M886.18,72.98c-2.21,0-4.14-.5-5.79-1.49-1.65-1-2.93-2.37-3.83-4.12-.91-1.75-1.36-3.77-1.36-6.04s.46-4.35,1.39-6.1c.93-1.75,2.22-3.11,3.87-4.09,1.65-.98,3.56-1.47,5.73-1.47s4.16,.5,5.81,1.49c1.65,1,2.93,2.37,3.85,4.12,.91,1.75,1.37,3.77,1.37,6.04s-.46,4.31-1.38,6.07c-.92,1.75-2.21,3.12-3.86,4.11-1.65,.99-3.58,1.48-5.79,1.48Zm0-4.62c1.96,0,3.42-.66,4.38-1.96,.96-1.31,1.43-3,1.43-5.07s-.48-3.85-1.45-5.12c-.97-1.27-2.42-1.91-4.36-1.91-1.32,0-2.41,.3-3.26,.89-.85,.59-1.48,1.42-1.89,2.47-.41,1.06-.61,2.28-.61,3.67,0,2.14,.49,3.85,1.46,5.12,.97,1.28,2.41,1.91,4.31,1.91Z"/>
      <path class="cls-6" d="M901.66,72.36v-22.09h4.4v6.85h.59v15.24h-4.99Zm15.32,0v-10.64c0-.7-.05-1.47-.14-2.31-.1-.85-.32-1.66-.67-2.44s-.87-1.43-1.55-1.93c-.69-.5-1.62-.76-2.79-.76-.63,0-1.25,.1-1.86,.31-.61,.2-1.17,.56-1.67,1.05-.5,.5-.9,1.18-1.2,2.04-.3,.87-.45,1.97-.45,3.32l-2.92-1.25c0-1.88,.37-3.59,1.09-5.11s1.8-2.74,3.22-3.65c1.42-.91,3.16-1.36,5.24-1.36,1.64,0,2.99,.27,4.05,.82,1.06,.54,1.91,1.24,2.54,2.09,.63,.85,1.09,1.75,1.39,2.7,.3,.96,.49,1.86,.58,2.71,.09,.85,.13,1.54,.13,2.08v12.33h-4.99Z"/>
      <path class="cls-6" d="M929.34,65v-22.09h2.35v22.09h-2.35Zm0,7.36v-3.01h2.35v3.01h-2.35Z"/>
    </g>
    <g id="SVGRepo_iconCarrier-2" data-name="SVGRepo iconCarrier">
      <path class="cls-5" d="M981.11,56.87l-4.34-1.4c-2.77-.92-4.4-3.16-5.16-5.98l-1.91-9.3c-.05-.18-.17-.43-.54-.43-.31,0-.49,.25-.54,.43l-1.91,9.3c-.77,2.82-2.39,5.07-5.16,5.98l-4.34,1.4c-.61,.2-.62,1.06-.01,1.27l4.37,1.5c2.76,.92,4.38,3.16,5.14,5.97l1.91,9.19c.05,.18,.15,.51,.54,.51,.41,0,.49-.33,.54-.51l1.91-9.19c.77-2.81,2.38-5.05,5.14-5.97l4.37-1.5c.6-.21,.59-1.08-.02-1.28Z"/>
      <path class="cls-7" d="M981.52,57.26c-.07-.17-.2-.32-.41-.39l-4.34-1.4c-2.77-.92-4.4-3.16-5.16-5.98l-1.91-9.3c-.03-.11-.13-.3-.24-.35l.62,9.33c.46,4.26,.85,6.26,4.25,6.85,2.92,.5,6.3,1.08,7.19,1.24Z"/>
      <path class="cls-3" d="M981.53,57.75l-7.52,1.72c-2.65,.67-4.11,2.21-4.11,6.22l-.74,9.63c.25-.02,.46-.16,.54-.51l1.91-9.19c.77-2.81,2.38-5.05,5.14-5.97l4.37-1.5c.21-.07,.34-.23,.4-.4Z"/>
      <g>
        <path class="cls-5" d="M956.27,64.96c-2.59-.86-2.83-1.82-3.27-3.45l-1.09-3.81c-.07-.25-.71-.25-.78,0l-.74,3.52c-.44,1.62-1.37,2.91-2.97,3.44l-2.54,1.1c-.35,.12-.36,.61,0,.73l2.56,.91c1.59,.53,2.52,1.81,2.96,3.43l.74,3.37c.07,.25,.71,.25,.77,0l.87-3.35c.44-1.63,1.11-2.92,3.27-3.45l2.4-.91c.35-.12,.35-.62,0-.73,0,0-2.18-.8-2.18-.8Z"/>
        <path class="cls-7" d="M952.13,61.45c.26,2.45,.4,3.13,2.38,3.63l4.13,.81c-.04-.06-.11-.11-.19-.13l-2.18-.8c-2.28-.78-2.9-1.77-3.33-3.75-.43-1.98-.88-3.27-.88-3.27-.16-.43-.39-.4-.39-.4,0,0,.45,3.92,.45,3.92Z"/>
        <path class="cls-3" d="M952.2,70c0-2.31,1.26-3.45,3.27-3.45l3.12-.13s-.18,.24-.49,.31l-2.04,.66c-1.73,.69-2.52,1.04-3.05,3.41,0,0-.69,2.75-.82,3.04-.18,.4-.4,.49-.4,.49,0,0,.41-4.33,.41-4.33Z"/>
      </g>
      <path class="cls-4" d="M961.86,46.69c.17-.06,.17-.31,0-.36l-2.4-.65c-.5-.14-.9-.53-1.04-1.03l-.95-3.91c-.05-.19-.32-.19-.36,0l-.89,3.89c-.14,.52-.54,.92-1.06,1.05l-2.39,.62c-.18,.05-.19,.3-.02,.36l2.52,.87c.45,.16,.8,.52,.94,.98l.9,3.61c.05,.19,.31,.19,.36,0l.93-3.62c.14-.46,.49-.82,.95-.97,0,0,2.52-.85,2.52-.85Z"/>
    </g>
  </g>
</svg>
