<?xml version="1.0" encoding="UTF-8"?>
<svg id="Layer_1" data-name="Layer 1" xmlns="http://www.w3.org/2000/svg" viewBox="0 0 800 800">
  <defs>
    <style>
      .cls-1 {
        fill: #ff9800;
      }

      .cls-2 {
        fill: #8a5100;
      }
    </style>
  </defs>
  <path class="cls-1" d="M682.64,791.5H117.36c-59.87,0-108.86-48.98-108.86-108.86V117.36C8.5,57.48,57.48,8.5,117.36,8.5H682.64c59.87,0,108.86,48.98,108.86,108.86V682.64c0,59.87-48.98,108.86-108.86,108.86Z"/>
  <path class="cls-2" d="M519.62,226h-239.25c-17.4,0-32.62-15.22-32.62-32.62h0c0-17.4,15.23-32.62,32.62-32.62h239.25c17.4,0,32.62,15.22,32.62,32.62h0c0,17.4-15.23,32.62-32.62,32.62Z"/>
</svg>
