<?xml version="1.0" encoding="UTF-8"?>
<svg id="Layer_1" data-name="Layer 1" xmlns="http://www.w3.org/2000/svg" viewBox="0 0 1200 93.98">
  <defs>
    <style>
      .cls-1 {
        opacity: .06;
      }

      .cls-2, .cls-3 {
        fill: #f4b400;
      }

      .cls-4 {
        fill: #fdd835;
      }

      .cls-5, .cls-6 {
        fill: #fff;
      }

      .cls-7 {
        fill: #ffee58;
      }

      .cls-8 {
        fill: #ffc5af;
      }

      .cls-9 {
        fill: #c6d9d5;
      }

      .cls-10 {
        fill: #d9e9e6;
      }

      .cls-11 {
        fill: #4539d0;
      }

      .cls-12, .cls-13 {
        fill: #a34f3e;
      }

      .cls-14 {
        fill: #503b37;
      }

      .cls-15 {
        fill: #282828;
      }

      .cls-16 {
        fill: #091426;
        opacity: .3;
      }

      .cls-16, .cls-17, .cls-18, .cls-6, .cls-19 {
        isolation: isolate;
      }

      .cls-13 {
        stroke: rgba(0, 0, 0, .2);
        stroke-miterlimit: 1.24;
        stroke-width: .37px;
      }

      .cls-17, .cls-18 {
        opacity: .03;
      }

      .cls-3 {
        stroke: #f4b400;
        stroke-miterlimit: 10;
      }

      .cls-18 {
        fill: #000d26;
      }

      .cls-6 {
        opacity: .04;
      }

      .cls-19 {
        opacity: .16;
      }
    </style>
  </defs>
  <rect class="cls-11" width="1200" height="93.98"/>
  <g class="cls-1">
    <path class="cls-5" d="M890.49-16.98c-32.58,14.2-24.36,27.51-24.36,27.51l6.45,14.7,31.09-13.55,1.92,4.42-43.44,18.93s-21.88,6.71-7.49,39.75c14.4,33.05,32.08,23.94,32.08,23.94l10.86-4.73-6.68-15.33s-8.55-18.04,9.94-26.09l30.84-13.44s17.45-7.27,9.99-24.38c-7.46-17.11-12.33-28.3-12.33-28.3,0,0-4.83-18.27-38.88-3.43ZM877.66,.39c3.09-1.35,6.69,.08,8.04,3.19s-.05,6.71-3.14,8.06-6.69-.08-8.04-3.19,.05-6.71,3.14-8.06Z"/>
    <path class="cls-5" d="M947.34,110.96c32.58-14.19,24.36-27.51,24.36-27.51l-6.45-14.7-31.09,13.55-1.92-4.42,43.44-18.93s21.88-6.71,7.49-39.75c-14.4-33.05-32.08-23.94-32.08-23.94L940.21-.02l6.68,15.33s8.56,18.04-9.94,26.09c-18.49,8.06-30.84,13.44-30.84,13.44,0,0-17.45,7.27-9.99,24.38,7.46,17.11,12.33,28.3,12.33,28.3,0,0,4.83,18.27,38.88,3.43Zm12.83-17.36c-3.09,1.35-6.69-.08-8.04-3.19-1.35-3.11,.05-6.71,3.14-8.06s6.69,.08,8.04,3.19c1.35,3.11-.05,6.71-3.14,8.06Z"/>
  </g>
  <g id="SVGRepo_iconCarrier" data-name="SVGRepo iconCarrier" class="cls-1">
    <path class="cls-5" d="M591.18,50.99c-.82,.36-1.74,.38-2.58,.06l-6.63-2.55c-1.75-.64-2.65-2.58-2.01-4.33,.64-1.75,2.58-2.65,4.33-2.01,.04,.01,.07,.03,.11,.04l3.49,1.34,4.07-10.51c.67-1.74,2.63-2.61,4.37-1.94,1.74,.67,2.61,2.63,1.94,4.37h0l-5.29,13.66c-.33,.83-.97,1.5-1.79,1.87Zm57.35-26.45l5.29-13.65c.64-1.75-.26-3.69-2.01-4.33-1.71-.63-3.6,.21-4.29,1.9l-4.07,10.51-3.49-1.34c-1.73-.7-3.7,.13-4.4,1.86-.7,1.73,.13,3.7,1.86,4.4,.04,.01,.07,.03,.11,.04l6.64,2.55c1.73,.67,3.67-.18,4.35-1.91,0,0,0-.02,.01-.03Zm-114.65,4.67l11.46-16.77c2.11-3.08,1.32-7.28-1.76-9.38-.85-.58-1.82-.96-2.84-1.11l-20.18-2.96c-3.69-.54-7.12,2.01-7.66,5.7-.18,1.26,0,2.55,.51,3.71l8.73,19.73c1.52,3.41,5.51,4.95,8.92,3.43,1.14-.51,2.12-1.32,2.83-2.35Zm5.88-20.58l-11.46,16.78-8.73-19.73,20.18,2.96Zm128.14-1.43c5.27,11.92-.13,25.9-12.05,31.17-10.74,4.73-23.32,.86-29.56-9.07l-12.84,5.68c3.16,11.3-2.45,23.21-13.17,27.97-10.74,4.73-23.32,.87-29.56-9.07l-3.45,1.52c-6,2.65-12.51,2.59-18.17,.35l13.77,31.13c4.52,10.21,16.5,14.85,26.72,10.33l.25-.11c-3.12-11.12,2.3-23.17,13.17-27.97,11.92-5.27,25.9,.13,31.17,12.05,5.27,11.92-.13,25.9-12.05,31.17-10.74,4.73-23.32,.87-29.56-9.07l-.25,.11c-13.62,6.02-29.6-.15-35.62-13.77l-19.39-43.84c-15.67,3.4-31.57-4.67-38.08-19.32-7.53-17.02,.19-37,17.22-44.53,17.02-7.53,37,.19,44.53,17.22,7.46,16.93-.08,36.72-16.92,44.38,4.59,6.55,13.18,8.95,20.5,5.71l3.45-1.52c-3.12-11.12,2.3-23.17,13.17-27.97,10.74-4.73,23.32-.87,29.56,9.07l12.84-5.68c-3.16-11.3,2.45-23.21,13.17-27.97,11.92-5.27,25.9,.13,31.17,12.05Zm-70.76,90.36c3.76,8.51,13.76,12.37,22.26,8.61,8.51-3.76,12.37-13.76,8.61-22.26-3.76-8.51-13.76-12.37-22.26-8.61-8.51,3.76-12.37,13.76-8.61,22.26Zm-56.1-60.08c13.62-6.02,19.8-22,13.77-35.62s-22-19.8-35.62-13.77c-13.62,6.02-19.8,22-13.77,35.62s22,19.8,35.62,13.77Zm65.13-2.97c-3.76-8.51-13.76-12.37-22.26-8.61-8.51,3.76-12.37,13.76-8.61,22.26s13.76,12.37,22.26,8.61c8.51-3.76,12.37-13.76,8.61-22.26Zm55.57-24.58c-3.76-8.51-13.76-12.37-22.26-8.61-8.51,3.76-12.37,13.76-8.61,22.26,3.76,8.51,13.76,12.37,22.26,8.61,8.51-3.76,12.37-13.76,8.61-22.26Zm-58.42,84.9c.75,1.7,2.75,2.48,4.45,1.72s2.48-2.75,1.72-4.45-2.75-2.48-4.45-1.72-2.48,2.75-1.72,4.45Zm12.35-5.46c.75,1.7,2.75,2.48,4.45,1.72s2.48-2.75,1.72-4.45-2.75-2.48-4.45-1.72-2.48,2.75-1.72,4.45Zm74.09-32.77c5.27,11.92-.13,25.9-12.05,31.17-10.74,4.73-23.33,.86-29.56-9.09-.04,.03-.07,.07-.12,.09l-3.08,1.49-.1,.05c-1.72,.71-3.7-.11-4.41-1.84-.67-1.62,.02-3.49,1.58-4.29l3.08-1.49c.11-.06,.23-.06,.34-.1-3.2-11.32,2.4-23.27,13.15-28.05,11.92-5.27,25.9,.13,31.17,12.05Zm-6.17,2.73c-3.76-8.51-13.76-12.37-22.26-8.61s-12.37,13.76-8.61,22.26c3.76,8.51,13.76,12.37,22.26,8.61,8.51-3.76,12.37-13.76,8.61-22.26Z"/>
  </g>
  <g>
    <g>
      <path class="cls-5" d="M404.82,60.22c-2.31,0-4.25-.51-5.83-1.54-1.57-1.03-2.75-2.45-3.55-4.27-.8-1.82-1.19-3.92-1.19-6.29s.4-4.48,1.19-6.29c.8-1.82,1.98-3.24,3.55-4.27,1.57-1.03,3.51-1.54,5.83-1.54,2.7,0,4.89,.7,6.58,2.1,1.68,1.4,2.83,3.27,3.43,5.62l-1.92,.47c-.49-1.95-1.42-3.49-2.77-4.64s-3.12-1.72-5.32-1.72c-1.9,0-3.49,.44-4.75,1.31-1.26,.87-2.22,2.08-2.86,3.63-.64,1.55-.97,3.33-.98,5.34-.02,2.01,.29,3.79,.93,5.33,.64,1.54,1.6,2.75,2.88,3.63,1.28,.88,2.87,1.32,4.78,1.32,2.19,0,3.97-.57,5.32-1.73,1.35-1.15,2.27-2.69,2.77-4.63l1.92,.47c-.6,2.35-1.75,4.22-3.43,5.62-1.68,1.4-3.88,2.1-6.58,2.1Z"/>
      <path class="cls-5" d="M418.38,59.73v-17.43h1.69v4.18l-.42-.55c.19-.49,.44-.95,.73-1.38,.3-.42,.6-.77,.91-1.04,.46-.43,1.01-.76,1.63-.98,.62-.22,1.25-.35,1.89-.39,.63-.04,1.21,.01,1.73,.15v1.76c-.69-.16-1.42-.19-2.19-.1-.77,.1-1.5,.43-2.18,1-.59,.52-1.02,1.12-1.29,1.8s-.44,1.4-.52,2.15c-.08,.75-.11,1.48-.11,2.19v8.63h-1.87Z"/>
      <path class="cls-5" d="M436.46,60.22c-1.67,0-3.11-.37-4.32-1.12-1.22-.75-2.16-1.81-2.82-3.18-.67-1.37-1-2.99-1-4.87s.33-3.55,.99-4.93c.66-1.38,1.6-2.44,2.81-3.19,1.21-.74,2.65-1.11,4.32-1.11s3.13,.38,4.33,1.15c1.2,.77,2.11,1.88,2.74,3.33s.93,3.2,.9,5.24h-1.94v-.65c-.05-2.39-.59-4.21-1.61-5.45-1.02-1.25-2.49-1.87-4.39-1.87s-3.49,.65-4.56,1.94-1.61,3.13-1.61,5.49,.54,4.16,1.61,5.45,2.58,1.94,4.53,1.94c1.34,0,2.52-.31,3.53-.94,1.01-.63,1.8-1.53,2.4-2.7l1.68,.74c-.7,1.51-1.71,2.67-3.03,3.49-1.32,.82-2.84,1.23-4.53,1.23Zm-6.87-8.67v-1.68h13.76v1.68h-13.76Z"/>
      <path class="cls-5" d="M452.68,60.22c-1.34,0-2.46-.24-3.35-.71-.89-.47-1.55-1.1-1.99-1.88-.44-.78-.66-1.63-.66-2.54,0-.99,.21-1.82,.62-2.49s.97-1.2,1.66-1.61c.69-.41,1.46-.71,2.3-.92,.96-.21,1.99-.4,3.1-.56,1.11-.16,2.16-.29,3.17-.41,1.01-.12,1.83-.22,2.46-.31l-.68,.4c.04-1.88-.31-3.28-1.06-4.2s-2.06-1.38-3.95-1.38c-1.32,0-2.41,.3-3.27,.9-.86,.6-1.45,1.52-1.8,2.77l-1.9-.53c.4-1.58,1.2-2.8,2.4-3.65,1.2-.85,2.75-1.28,4.63-1.28,1.6,0,2.95,.31,4.04,.94,1.09,.62,1.85,1.5,2.28,2.63,.18,.46,.31,1,.37,1.62,.06,.62,.1,1.24,.1,1.86v10.86h-1.69v-4.58l.63,.16c-.53,1.57-1.45,2.78-2.76,3.63-1.31,.85-2.87,1.27-4.66,1.27Zm.1-1.71c1.18,0,2.22-.21,3.11-.64,.89-.43,1.62-1.02,2.17-1.79,.55-.77,.91-1.68,1.06-2.72,.11-.58,.17-1.21,.18-1.89,.01-.68,.02-1.18,.02-1.5l.81,.52c-.7,.09-1.54,.18-2.51,.27s-1.97,.21-2.98,.36c-1.01,.14-1.93,.32-2.74,.53-.51,.14-1.01,.34-1.53,.6-.51,.26-.94,.63-1.28,1.09-.34,.46-.51,1.05-.51,1.76,0,.53,.13,1.05,.4,1.58,.26,.53,.7,.96,1.32,1.31s1.44,.52,2.49,.52Z"/>
      <path class="cls-5" d="M463.43,44v-1.69h11.18v1.69h-11.18Zm11.18,15.73c-.93,.2-1.84,.28-2.74,.23s-1.71-.25-2.41-.61c-.7-.36-1.23-.92-1.59-1.67-.29-.61-.45-1.23-.48-1.86s-.05-1.34-.05-2.15v-16.22h1.87v16.19c0,.73,0,1.34,.02,1.82s.13,.92,.33,1.32c.39,.74,1,1.19,1.84,1.35,.84,.16,1.91,.13,3.21-.07v1.68Z"/>
      <path class="cls-5" d="M484.57,60.22c-1.67,0-3.11-.37-4.32-1.12-1.22-.75-2.16-1.81-2.82-3.18-.67-1.37-1-2.99-1-4.87s.33-3.55,.99-4.93,1.6-2.44,2.81-3.19c1.21-.74,2.65-1.11,4.32-1.11s3.13,.38,4.33,1.15c1.2,.77,2.11,1.88,2.74,3.33,.63,1.45,.93,3.2,.9,5.24h-1.94v-.65c-.05-2.39-.59-4.21-1.61-5.45-1.02-1.25-2.49-1.87-4.39-1.87s-3.49,.65-4.56,1.94c-1.07,1.3-1.61,3.13-1.61,5.49s.54,4.16,1.61,5.45c1.07,1.29,2.58,1.94,4.53,1.94,1.34,0,2.52-.31,3.53-.94s1.81-1.53,2.4-2.7l1.68,.74c-.7,1.51-1.71,2.67-3.03,3.49-1.32,.82-2.83,1.23-4.53,1.23Zm-6.87-8.67v-1.68h13.76v1.68h-13.76Z"/>
      <path class="cls-5" d="M512.11,60.22c-1.51,0-2.92-.27-4.24-.8-1.32-.53-2.47-1.32-3.47-2.35-1-1.03-1.77-2.3-2.33-3.8s-.84-3.22-.84-5.16c0-2.54,.47-4.71,1.42-6.51s2.24-3.18,3.89-4.15c1.65-.96,3.5-1.44,5.57-1.44,2.86,0,5.13,.66,6.8,1.99,1.67,1.33,2.81,3.19,3.4,5.59l-3.97,.63c-.44-1.38-1.16-2.48-2.16-3.3-1-.82-2.28-1.23-3.82-1.23-1.56-.02-2.86,.32-3.89,1.02-1.03,.7-1.81,1.68-2.33,2.95-.52,1.27-.78,2.75-.78,4.45s.26,3.18,.77,4.43c.52,1.25,1.29,2.23,2.33,2.93,1.04,.7,2.34,1.06,3.9,1.08,1.17,.01,2.2-.2,3.08-.64,.88-.44,1.6-1.1,2.16-1.98s.94-2,1.13-3.33h-4.1v-3.05h8.23c.02,.17,.04,.42,.05,.76s.02,.53,.02,.6c0,2.19-.43,4.14-1.3,5.85-.87,1.71-2.11,3.04-3.72,4.01-1.61,.97-3.54,1.45-5.79,1.45Z"/>
      <path class="cls-5" d="M526.48,39.66v-3.57h3.89v3.57h-3.89Zm0,20.07v-17.43h3.89v17.43h-3.89Z"/>
      <path class="cls-5" d="M533.27,45.36v-3.05h12.15v3.05h-12.15Zm12.15,14.38c-1.15,.21-2.28,.31-3.38,.28-1.1-.03-2.09-.23-2.96-.61-.87-.38-1.53-.99-1.99-1.82-.4-.75-.61-1.52-.63-2.31s-.03-1.67-.03-2.66v-15.15h3.87v14.93c0,.7,0,1.31,.02,1.84,.02,.53,.13,.96,.33,1.29,.39,.65,1.01,1.01,1.86,1.08,.85,.08,1.82,.03,2.9-.13v3.26Z"/>
      <path class="cls-5" d="M549.18,59.73v-23.24h3.89v9.78h11.01v-9.78h3.87v23.24h-3.87v-9.81h-11.01v9.81h-3.89Z"/>
      <path class="cls-5" d="M579,60.23c-1.29,0-2.36-.21-3.2-.65-.84-.43-1.51-.98-2-1.65s-.86-1.38-1.1-2.13c-.24-.75-.39-1.47-.46-2.14-.07-.67-.1-1.22-.1-1.64v-9.73h3.94v8.39c0,.54,.04,1.14,.11,1.82,.08,.67,.25,1.32,.52,1.94s.68,1.13,1.23,1.53c.54,.4,1.28,.6,2.2,.6,.49,0,.98-.08,1.47-.24,.48-.16,.92-.44,1.32-.83s.71-.93,.94-1.62c.24-.69,.36-1.56,.36-2.61l2.31,.98c0,1.48-.29,2.83-.86,4.03s-1.42,2.16-2.54,2.88c-1.12,.72-2.5,1.07-4.13,1.07Zm5.7-.5v-5.41h-.47v-12.02h3.91v17.43h-3.44Z"/>
      <path class="cls-5" d="M592.62,59.73v-23.24h3.92v11.01h-.48v12.23h-3.44Zm8.41,.48c-1.7,0-3.13-.4-4.28-1.21-1.15-.81-2.02-1.91-2.6-3.3-.58-1.39-.87-2.96-.87-4.69s.29-3.32,.87-4.71c.58-1.39,1.43-2.48,2.56-3.28,1.12-.8,2.51-1.2,4.17-1.2s3.07,.4,4.28,1.2c1.21,.8,2.15,1.89,2.82,3.28,.67,1.38,1,2.96,1,4.72s-.33,3.31-.98,4.7c-.66,1.39-1.58,2.49-2.77,3.29-1.19,.81-2.59,1.21-4.2,1.21Zm-.6-3.49c1.01,0,1.85-.25,2.5-.76,.66-.51,1.14-1.19,1.46-2.06,.32-.87,.48-1.83,.48-2.9s-.16-2.01-.48-2.88-.82-1.55-1.5-2.07c-.68-.51-1.54-.77-2.58-.77s-1.8,.24-2.42,.72c-.62,.48-1.08,1.15-1.38,2-.3,.86-.44,1.85-.44,2.99s.15,2.12,.44,2.99,.76,1.53,1.4,2.01,1.48,.72,2.53,.72Z"/>
      <path class="cls-5" d="M617.38,59.73l7.33-23.24h5.7l7.33,23.24h-4l-6.65-20.85h.87l-6.57,20.85h-4Zm4.08-5.03v-3.63h12.2v3.63h-12.2Z"/>
      <path class="cls-5" d="M648.2,60.22c-1.8,0-3.33-.4-4.6-1.2-1.27-.8-2.24-1.9-2.91-3.28-.67-1.39-1.01-2.96-1.02-4.71,.01-1.79,.36-3.37,1.06-4.75,.69-1.38,1.68-2.47,2.96-3.26,1.28-.79,2.8-1.19,4.57-1.19,1.98,0,3.65,.5,5.03,1.49,1.37,1,2.27,2.35,2.69,4.07l-3.87,1.05c-.3-.94-.8-1.66-1.5-2.19-.7-.52-1.5-.78-2.39-.78-1.01,0-1.85,.24-2.5,.72-.66,.48-1.14,1.14-1.45,1.98-.31,.84-.47,1.79-.47,2.86,0,1.66,.37,3,1.11,4.02,.74,1.02,1.85,1.53,3.31,1.53,1.03,0,1.85-.24,2.45-.71,.6-.47,1.05-1.16,1.35-2.05l3.97,.89c-.54,1.78-1.48,3.14-2.82,4.09-1.35,.95-2.99,1.43-4.94,1.43Z"/>
      <path class="cls-5" d="M657.27,45.36v-3.05h12.15v3.05h-12.15Zm12.15,14.38c-1.15,.21-2.28,.31-3.38,.28-1.1-.03-2.09-.23-2.96-.61-.87-.38-1.53-.99-1.99-1.82-.4-.75-.61-1.52-.63-2.31s-.03-1.67-.03-2.66v-15.15h3.87v14.93c0,.7,0,1.31,.02,1.84,.02,.53,.13,.96,.33,1.29,.39,.65,1.01,1.01,1.86,1.08,.85,.08,1.82,.03,2.9-.13v3.26Z"/>
      <path class="cls-5" d="M673.5,39.66v-3.57h3.89v3.57h-3.89Zm0,20.07v-17.43h3.89v17.43h-3.89Z"/>
      <path class="cls-5" d="M689.93,60.22c-1.74,0-3.27-.39-4.57-1.18-1.3-.79-2.31-1.87-3.03-3.25-.72-1.38-1.07-2.97-1.07-4.77s.37-3.43,1.1-4.81c.73-1.38,1.75-2.45,3.05-3.23,1.3-.78,2.81-1.16,4.52-1.16s3.28,.39,4.58,1.18c1.3,.79,2.31,1.87,3.03,3.25,.72,1.38,1.08,2.97,1.08,4.77s-.36,3.4-1.09,4.78c-.73,1.38-1.74,2.46-3.04,3.24-1.3,.78-2.82,1.17-4.57,1.17Zm0-3.65c1.55,0,2.7-.52,3.45-1.55,.75-1.03,1.13-2.37,1.13-4s-.38-3.04-1.15-4.04c-.76-1.01-1.91-1.51-3.44-1.51-1.04,0-1.9,.23-2.57,.7-.67,.47-1.17,1.12-1.49,1.95-.32,.83-.48,1.8-.48,2.9,0,1.69,.38,3.04,1.15,4.04,.77,1.01,1.9,1.51,3.4,1.51Z"/>
      <path class="cls-5" d="M702.14,59.73v-17.43h3.47v5.41h.47v12.02h-3.94Zm12.09,0v-8.39c0-.55-.04-1.16-.11-1.82-.08-.67-.25-1.31-.52-1.93s-.68-1.13-1.23-1.52c-.54-.4-1.28-.6-2.2-.6-.5,0-.98,.08-1.47,.24-.48,.16-.92,.44-1.32,.83-.39,.39-.71,.93-.94,1.61-.24,.68-.36,1.56-.36,2.62l-2.31-.98c0-1.48,.29-2.83,.86-4.03s1.42-2.16,2.54-2.88c1.12-.72,2.5-1.07,4.13-1.07,1.29,0,2.36,.21,3.19,.65,.84,.43,1.51,.98,2,1.65,.49,.67,.86,1.38,1.1,2.13,.24,.75,.39,1.47,.46,2.14,.07,.67,.1,1.22,.1,1.64v9.73h-3.94Z"/>
      <path class="cls-5" d="M729.09,60.22c-2.15,0-3.9-.48-5.24-1.45-1.35-.97-2.16-2.33-2.45-4.08l3.97-.61c.2,.86,.66,1.54,1.36,2.03,.7,.5,1.58,.74,2.65,.74,.94,0,1.66-.19,2.17-.56s.77-.88,.77-1.52c0-.4-.09-.72-.28-.96-.19-.24-.6-.48-1.23-.7s-1.61-.51-2.92-.86c-1.46-.39-2.62-.8-3.49-1.25-.86-.45-1.48-.98-1.86-1.59-.38-.61-.56-1.36-.56-2.23,0-1.09,.29-2.03,.86-2.84,.57-.81,1.37-1.43,2.39-1.86,1.02-.44,2.23-.65,3.61-.65s2.56,.21,3.61,.63c1.05,.42,1.9,1.02,2.54,1.79,.65,.77,1.04,1.68,1.19,2.73l-3.97,.71c-.1-.74-.43-1.33-1.01-1.76-.58-.43-1.34-.67-2.3-.73-.91-.05-1.65,.08-2.21,.41s-.84,.79-.84,1.38c0,.33,.11,.62,.34,.86s.68,.47,1.36,.71c.68,.24,1.7,.53,3.06,.87,1.39,.36,2.5,.76,3.33,1.22s1.44,1,1.81,1.64c.37,.63,.56,1.4,.56,2.31,0,1.75-.64,3.13-1.91,4.13-1.28,1-3.04,1.5-5.28,1.5Z"/>
      <path class="cls-5" d="M755.27,60.22c-1.74,0-3.29-.36-4.64-1.09-1.35-.73-2.41-1.75-3.18-3.07-.77-1.32-1.15-2.86-1.15-4.64v-14.93h1.87v14.54c0,1.32,.22,2.46,.67,3.4,.45,.94,1.03,1.71,1.74,2.3,.71,.59,1.48,1.03,2.31,1.31s1.62,.42,2.38,.42,1.56-.14,2.39-.42c.83-.28,1.6-.72,2.31-1.31,.71-.59,1.29-1.36,1.73-2.3,.45-.94,.67-2.07,.67-3.4v-14.54h1.87v14.93c0,1.76-.39,3.31-1.15,4.62-.77,1.32-1.83,2.34-3.18,3.07-1.35,.73-2.9,1.1-4.64,1.1Z"/>
      <path class="cls-5" d="M775.19,60.18c-2.01,0-3.67-.42-4.98-1.27s-2.12-2.03-2.43-3.55l1.9-.32c.27,1.03,.9,1.86,1.9,2.47s2.23,.92,3.68,.92,2.59-.31,3.44-.92,1.28-1.45,1.28-2.52c0-.58-.13-1.06-.4-1.43-.26-.37-.78-.71-1.56-1.02-.77-.31-1.93-.68-3.45-1.1-1.61-.43-2.88-.86-3.78-1.29-.91-.43-1.55-.92-1.92-1.47-.37-.55-.56-1.22-.56-2.02,0-.96,.27-1.8,.82-2.53,.55-.73,1.32-1.29,2.3-1.7s2.12-.61,3.41-.61,2.45,.21,3.49,.64c1.03,.43,1.87,1.02,2.5,1.78,.63,.76,1,1.64,1.1,2.64l-1.9,.36c-.18-1.12-.75-2-1.69-2.65-.95-.65-2.13-.98-3.55-.99-1.34-.02-2.44,.24-3.29,.8s-1.27,1.28-1.27,2.19c0,.52,.15,.95,.44,1.32,.3,.36,.82,.69,1.57,.99,.75,.3,1.82,.62,3.19,.97,1.68,.43,2.99,.87,3.93,1.32,.94,.45,1.61,.98,1.99,1.59,.39,.61,.58,1.36,.58,2.25,0,1.61-.6,2.88-1.8,3.8s-2.85,1.38-4.95,1.38Z"/>
      <path class="cls-5" d="M785.84,38.79v-2.37h1.86v2.37h-1.86Zm0,20.95v-17.43h1.86v17.43h-1.86Z"/>
      <path class="cls-5" d="M792.54,59.73v-17.43h1.69v3.92h.18v13.51h-1.87Zm12.76,0v-9.07c0-1.1-.11-2.08-.33-2.94-.22-.86-.55-1.59-1-2.19-.45-.6-1.01-1.06-1.68-1.37-.67-.31-1.47-.47-2.38-.47s-1.77,.16-2.46,.49c-.69,.33-1.26,.79-1.71,1.38-.45,.59-.78,1.29-1,2.11-.22,.81-.33,1.7-.33,2.65l-1.47-.18c0-1.88,.32-3.43,.96-4.66s1.5-2.12,2.59-2.71c1.09-.59,2.31-.88,3.66-.88,.96,0,1.82,.14,2.57,.42,.76,.28,1.42,.68,1.98,1.19s1.02,1.11,1.39,1.81c.37,.69,.64,1.45,.82,2.28,.18,.83,.27,1.69,.27,2.6v9.54h-1.87Z"/>
      <path class="cls-5" d="M818.07,60.22c-1.65,0-3.04-.41-4.17-1.22-1.14-.81-2-1.91-2.6-3.31-.6-1.39-.9-2.96-.9-4.7s.3-3.28,.89-4.66c.59-1.39,1.44-2.49,2.56-3.29,1.11-.81,2.46-1.21,4.04-1.21s3,.4,4.11,1.19c1.12,.8,1.96,1.89,2.53,3.27,.57,1.38,.86,2.95,.86,4.7s-.29,3.31-.86,4.7c-.57,1.39-1.4,2.49-2.49,3.31-1.09,.82-2.42,1.23-3.99,1.23Zm.08,7.75c-.86,0-1.72-.13-2.57-.38s-1.65-.66-2.4-1.23c-.74-.56-1.37-1.32-1.89-2.25l1.68-1c.53,1.08,1.28,1.84,2.24,2.31,.97,.46,1.95,.69,2.95,.69,1.41,0,2.53-.26,3.35-.78,.82-.52,1.41-1.3,1.77-2.34,.36-1.04,.53-2.33,.53-3.87v-4.57h.19v-12.25h1.69v16.81c0,.52-.01,1.01-.03,1.48-.02,.47-.07,.95-.15,1.42-.19,1.35-.59,2.46-1.19,3.33-.6,.88-1.42,1.53-2.44,1.96-1.03,.43-2.27,.65-3.74,.65Zm.03-9.52c1.3,0,2.39-.33,3.25-.98s1.51-1.54,1.94-2.66c.42-1.12,.64-2.4,.64-3.82s-.21-2.71-.65-3.82c-.43-1.12-1.08-1.99-1.94-2.62s-1.93-.94-3.21-.94-2.42,.33-3.28,.98c-.86,.65-1.5,1.53-1.92,2.65-.42,1.11-.63,2.37-.63,3.77s.22,2.68,.65,3.8c.44,1.12,1.08,2.01,1.94,2.67s1.92,.98,3.2,.98Z"/>
      <path class="cls-5" d="M836.68,59.73v-23.24h9.6c.23,0,.52,0,.87,.02,.35,.02,.68,.05,.98,.1,1.35,.2,2.46,.65,3.33,1.34,.88,.69,1.53,1.56,1.95,2.61,.43,1.05,.64,2.21,.64,3.49s-.21,2.43-.64,3.48c-.43,1.05-1.08,1.92-1.96,2.61-.88,.69-1.98,1.13-3.32,1.34-.3,.04-.63,.07-.99,.1s-.65,.03-.86,.03h-5.71v8.12h-3.89Zm3.89-11.75h5.55c.21,0,.46-.01,.73-.03,.27-.02,.52-.06,.74-.13,.65-.16,1.15-.45,1.52-.86,.37-.41,.63-.87,.79-1.39,.16-.52,.23-1.02,.23-1.52s-.08-1-.23-1.52c-.16-.52-.42-.99-.79-1.4-.37-.41-.88-.69-1.52-.86-.23-.06-.47-.1-.74-.12-.27-.02-.51-.02-.73-.02h-5.55v7.84Z"/>
      <path class="cls-5" d="M859.57,67.48l3.36-9.21,.06,2.71-7.6-18.67h4.05l5.39,13.81h-1.03l5.24-13.81h3.89l-9.71,25.17h-3.65Z"/>
      <path class="cls-5" d="M874.69,45.36v-3.05h12.15v3.05h-12.15Zm12.15,14.38c-1.15,.21-2.28,.31-3.38,.28-1.1-.03-2.09-.23-2.96-.61-.87-.38-1.53-.99-1.99-1.82-.4-.75-.61-1.52-.63-2.31s-.03-1.67-.03-2.66v-15.15h3.87v14.93c0,.7,0,1.31,.02,1.84,.02,.53,.13,.96,.33,1.29,.39,.65,1.01,1.01,1.86,1.08,.85,.08,1.82,.03,2.9-.13v3.26Z"/>
      <path class="cls-5" d="M890.57,59.73v-23.24h3.47v12.23h.47v11.01h-3.94Zm12.09,0v-8.39c0-.55-.04-1.16-.11-1.82-.08-.67-.25-1.31-.52-1.93s-.68-1.13-1.23-1.52c-.54-.4-1.28-.6-2.2-.6-.5,0-.98,.08-1.47,.24-.48,.16-.92,.44-1.32,.83-.39,.39-.71,.93-.94,1.61-.24,.68-.36,1.56-.36,2.62l-2.31-.98c0-1.48,.29-2.83,.86-4.03s1.42-2.16,2.54-2.88c1.12-.72,2.5-1.07,4.13-1.07,1.29,0,2.36,.21,3.19,.65,.84,.43,1.51,.98,2,1.65,.49,.67,.86,1.38,1.1,2.13,.24,.75,.39,1.47,.46,2.14,.07,.67,.1,1.22,.1,1.64v9.73h-3.94Z"/>
      <path class="cls-5" d="M918.49,60.22c-1.74,0-3.27-.39-4.57-1.18-1.3-.79-2.31-1.87-3.03-3.25-.72-1.38-1.07-2.97-1.07-4.77s.37-3.43,1.1-4.81c.73-1.38,1.75-2.45,3.05-3.23,1.3-.78,2.81-1.16,4.52-1.16s3.28,.39,4.58,1.18c1.3,.79,2.31,1.87,3.03,3.25,.72,1.38,1.08,2.97,1.08,4.77s-.36,3.4-1.09,4.78c-.73,1.38-1.74,2.46-3.04,3.24-1.3,.78-2.82,1.17-4.57,1.17Zm0-3.65c1.55,0,2.7-.52,3.45-1.55,.75-1.03,1.13-2.37,1.13-4s-.38-3.04-1.15-4.04c-.76-1.01-1.91-1.51-3.44-1.51-1.04,0-1.9,.23-2.57,.7-.67,.47-1.17,1.12-1.49,1.95-.32,.83-.48,1.8-.48,2.9,0,1.69,.38,3.04,1.15,4.04,.77,1.01,1.9,1.51,3.4,1.51Z"/>
      <path class="cls-5" d="M930.71,59.73v-17.43h3.47v5.41h.47v12.02h-3.94Zm12.09,0v-8.39c0-.55-.04-1.16-.11-1.82-.08-.67-.25-1.31-.52-1.93s-.68-1.13-1.23-1.52c-.54-.4-1.28-.6-2.2-.6-.5,0-.98,.08-1.47,.24-.48,.16-.92,.44-1.32,.83-.39,.39-.71,.93-.94,1.61-.24,.68-.36,1.56-.36,2.62l-2.31-.98c0-1.48,.29-2.83,.86-4.03s1.42-2.16,2.54-2.88c1.12-.72,2.5-1.07,4.13-1.07,1.29,0,2.36,.21,3.19,.65,.84,.43,1.51,.98,2,1.65,.49,.67,.86,1.38,1.1,2.13,.24,.75,.39,1.47,.46,2.14,.07,.67,.1,1.22,.1,1.64v9.73h-3.94Z"/>
      <path class="cls-5" d="M952.54,53.92v-17.43h1.86v17.43h-1.86Zm0,5.81v-2.37h1.86v2.37h-1.86Z"/>
    </g>
    <g id="SVGRepo_iconCarrier-2" data-name="SVGRepo iconCarrier">
      <path class="cls-4" d="M993.38,47.51l-3.42-1.1c-2.19-.72-3.47-2.49-4.07-4.72l-1.51-7.33c-.04-.14-.14-.34-.43-.34-.25,0-.39,.19-.43,.34l-1.51,7.34c-.6,2.23-1.88,4-4.07,4.72l-3.42,1.1c-.48,.16-.49,.84,0,1l3.45,1.19c2.18,.72,3.45,2.49,4.06,4.71l1.51,7.25c.04,.14,.12,.41,.43,.41,.33,0,.39-.26,.43-.41l1.51-7.25c.6-2.22,1.88-3.99,4.06-4.71l3.45-1.19c.48-.17,.47-.85-.01-1.01Z"/>
      <path class="cls-7" d="M993.71,47.82c-.05-.14-.16-.25-.32-.31l-3.42-1.1c-2.19-.72-3.47-2.49-4.07-4.72l-1.51-7.33c-.02-.08-.1-.24-.19-.28l.49,7.36c.36,3.36,.67,4.94,3.35,5.4,2.3,.4,4.97,.85,5.68,.98Z"/>
      <path class="cls-2" d="M993.71,48.2l-5.93,1.36c-2.09,.53-3.24,1.74-3.24,4.91l-.58,7.6c.2-.02,.36-.13,.43-.41l1.51-7.25c.6-2.22,1.88-3.99,4.06-4.71l3.45-1.19c.16-.06,.27-.18,.32-.32Z"/>
      <g>
        <path class="cls-4" d="M973.79,53.89c-2.05-.68-2.23-1.44-2.58-2.72l-.86-3.01c-.05-.19-.56-.19-.61,0l-.58,2.78c-.35,1.28-1.08,2.3-2.34,2.71l-2,.87c-.28,.09-.28,.48,0,.58l2.02,.71c1.25,.42,1.98,1.43,2.33,2.71l.58,2.66c.05,.19,.56,.19,.61,0l.68-2.65c.35-1.28,.88-2.3,2.58-2.72l1.9-.71c.28-.1,.28-.49,0-.58l-1.72-.63Z"/>
        <path class="cls-7" d="M970.52,51.13c.21,1.93,.31,2.47,1.88,2.87l3.26,.64s-.08-.09-.15-.11l-1.72-.63c-1.8-.61-2.29-1.39-2.63-2.96-.34-1.56-.7-2.58-.7-2.58-.13-.34-.3-.32-.3-.32l.36,3.09Z"/>
        <path class="cls-2" d="M970.58,57.86c0-1.82,.99-2.72,2.58-2.72l2.46-.1s-.14,.19-.39,.25l-1.61,.52c-1.36,.55-1.98,.82-2.41,2.69,0,0-.55,2.17-.65,2.4-.14,.32-.31,.39-.31,.39l.33-3.42Z"/>
      </g>
      <path class="cls-3" d="M978.19,39.48c.14-.05,.13-.24,0-.28l-1.9-.51c-.4-.11-.71-.42-.82-.81l-.75-3.08c-.04-.15-.25-.15-.29,0l-.7,3.07c-.11,.41-.43,.72-.84,.83l-1.88,.49c-.14,.04-.15,.23-.01,.28l1.99,.69c.36,.12,.63,.41,.74,.77l.71,2.85c.04,.15,.25,.15,.28,0l.73-2.86c.11-.36,.39-.65,.75-.77l1.99-.67Z"/>
    </g>
  </g>
  <g>
    <g id="Mask">
      <path class="cls-8" d="M353.85,65.37c-.71-6.07-3.98-8.57-4.82-10.69-.21-.2-.36-.48-.37-.78-.36-6.81,1.97-21.7-.18-33.02-2.15-11.3-9.3-15.37-12.54-15.19-4.31,.23-18.57,.18-32.93,.36-14.36,.18-31.67-1.16-45.31,3.33s-16.88,21.92-15.09,35.56c1.8,13.64,5.57,16.15,5.92,20.1,.23,2.53-4.25,6.85-2.33,15.62,1.97,8.97,19.92,19.55,42.89,19.55,7.17,0,13.27-5.21,20.28-5.57,4.16-.21,8.73,1.49,17.67-1.09,.25-.07,.52-.14,.76-.23,8.01-3.84,14.53-8.54,19.05-13.24,2.44-2.53,4.23-5.09,5.41-7.51,1.3-2.69,1.81-5.21,1.58-7.2Z"/>
      <path class="cls-13" d="M303.88,66.65c.11,1.58,3.34,1.42,4.96,1.21,1.62-.21,3.49-1.44,3.43-1.96s-1.26-2.22-4.63-1.81-3.77,2.56-3.77,2.56Z"/>
    </g>
    <g id="Mask_Shadow" data-name="Mask Shadow">
      <path class="cls-18" d="M304.31,66.22c-.34,.27-.25,.75,.09,1.05,.34,.28,.82,.39,1.3,.46,2.13,.39,4.5,.5,6.42-.36,.05-.02,.11-.05,.11-.09s-.09-.05-.11-.02c-2.05,1.49-4.55,2.13-7.31,1.9-.84-.07-1.76-.27-2.22-.84-.37-.46-.36-1.14,.04-1.58,.37-.48,1-.57,1.69-.53Z"/>
      <path class="cls-18" d="M346.84,80.08c2.21-2.29,3.9-4.63,5.05-6.83-16.28,16.95-26.84,18.02-42.11,19.39-15.8,1.44-5.75-.71-20.46,1.09-13.68,1.67-31.04-1.62-43.51-15.33,.07,.75,.2,1.49,.36,2.24,1.97,8.97,19.92,19.55,42.89,19.55,7.17,0,13.27-5.21,20.28-5.57,4.29-.21,8.98,1.6,18.45-1.3,8.01-3.82,14.53-8.52,19.05-13.24Z"/>
      <path class="cls-18" d="M348.46,20.88c-2.15-11.3-9.3-15.37-12.54-15.19-4.09,.23-15.3-6.16-28.66-4.68-.91,.04-12.36,1.19-13.25,1.25-14.16-.12-19.89,4.23-33.36,8.66-13.64,4.48-19.84,20.39-18.04,34.01,1.8,13.64,5.57,16.15,5.92,20.1,.02,.21,0,.41-.04,.62,.11-.68,4.43-1.51,5.02-1.64,2.26-.48,4.55-.76,6.87-.85,6.19-.32,12.42,.37,18.48,1.58,.64,.12,1.3,.23,1.94,.32l.44,.18,.73,.16c.16,0,.3-.02,.46-.02-.11-.05-.23-.12-.34-.2,3.22,.25,6.33-.11,9.14-1.46,6.37-1.83,12.83-4.43,18.71-4.07,8.79,.53,8.79,3.59,13.45,2.51,.73-.18,1.49-.55,2.29-1.09,1.62-.57,3.02-1.71,4.34-2.83,.41-.36,.82-.69,1.23-1.07,3.88-2.42,9.16-4.54,17.33-3.29-.32-6.81,2.01-21.72-.14-33.02Z"/>
    </g>
    <g id="Body">
      <path class="cls-15" d="M376.23,128.26c-6.32-2.6-9.25-4.86-11.9-6.19-.11,1.25-.27,2.49-.5,3.72-.02,.05-.02,.12-.04,.18-.04,.14-.05,.28-.09,.43-.04,.21-.09,.41-.14,.62h0c-.04,.18-.07,.34-.12,.5,0,.02-.02,.05-.02,.07h0c-.05,.2-.09,.37-.14,.57h0c-.07,.25-.14,.5-.21,.75-.02,.05-.04,.11-.05,.18-.07,.23-.14,.48-.23,.71h0c-.07,.23-.16,.46-.25,.69-.02,.05-.04,.11-.05,.16-.09,.21-.16,.44-.25,.66h0s-.04,.05-.04,.09h0s-.04,.09-.05,.12c-.07,.18-.14,.34-.21,.5l-.09,.2h0c-.05,.12-.11,.23-.16,.36l-.04,.07h0l-.09,.18h0l-.12,.23h0c-.05,.11-.11,.2-.16,.3l-.05,.11h0c-.07,.12-.12,.23-.2,.36l-.02,.04h0l-.12,.21h0l-.04,.07c-.05,.11-.12,.2-.18,.3h0l-.09,.14h0l-.14,.21h0l-.07,.11h0c-.05,.07-.11,.16-.18,.23l-.02,.02h0c-.11,.14-.21,.27-.32,.41l-.05,.05c-.11,.12-.21,.25-.32,.37-.34,.37-.71,.71-1.1,1-3.11,2.24-8.98-1.73-22.63-11.74-12.47-9.14-20.6-21.19-25.21-23.59-.94-1.42-.11-2.35,.96-3.01l-.05,.02c5.27-1.32,10.41-3.15,15.33-5.43-8.86,2.54-13.4,.85-17.52,1.07-6.94,.36-12.99,5.51-20.1,5.51-22.77,0-40.56-10.5-42.52-19.39-1.9-8.68,2.54-12.97,2.31-15.48-.36-3.91-4.09-6.4-5.87-19.92s6.58-24.19,20.1-28.64c13.52-4.45,27.4,7.29,41.63,7.12,14.23-.18,26.15-14.53,30.42-14.77,3.2-.18,10.67,1.25,12.81,12.45,2.13,11.21-.18,25.97,.18,32.73,.02,.3,.14,.59,.37,.78,.84,2.1,4.07,4.59,4.79,10.6,.23,1.97-.28,4.47-1.58,7.15,1.37-2.76,1.92-5.3,1.67-7.33-.8-6.78-4.8-9.07-4.98-11.39s3.38-14.77,3.02-30.24c-.36-15.48-7.83-22.95-16.37-30.42-8.54-7.47-24.55-15.12-49.28-14.77S232.63-.56,227.69,9.06c-6.58,12.81-9.25,22.42-3.38,45.72,4.48,17.83,17.06,37.71,43.76,44.65,8.22,2.13,18.11,2.51,29,1.6,.64-.05,1.28-.11,1.92-.18h0c.68,.6-.59,1.71-1.76,2.79-3.33,2.17-7.7,6.67-13.47,11.05-7.03,5.32-35.24,20.9-42.32,31.43s.18,19.87,6.39,26.26c3.72,3.82,8.68,7.15,12.74,9.55l-.27,.12-.09,.04-.21,.11-.12,.05-.21,.11-.14,.05-.21,.11-.14,.07-.23,.11-.16,.07-.23,.12-.16,.09-.25,.12-.18,.09-.27,.12-.18,.09-.27,.14-.18,.09-.28,.14-.18,.09-.28,.16-.18,.09-.3,.18-.16,.09-.32,.18-.14,.09-.36,.21-.11,.07c-.16,.09-.3,.2-.46,.28h0l-.46,.3h0c-2.17,1.42-4.06,3.08-4.47,4.66-1.03,4.15,1.03,6.9,3.45,5.02,4.39,7.15,11.21,11.46,18.16,12.74-.02,.04-.02,.05-.04,.09l-.07,.18c-.02,.05-.04,.09-.05,.14l-.05,.14v.02s-.04,.09-.05,.14-.05,.14-.07,.2c-.02,.04-.02,.07-.04,.11v.02c-.02,.05-.04,.11-.05,.14l-.02,.05s-.02,.04-.02,.04c-.04,.07-.05,.14-.07,.21l-.04,.07h0c-.02,.05-.04,.11-.05,.14v.02s-.02,.04-.02,.05c-.02,.05-.04,.12-.05,.18,0,.02,0,.04-.02,.04h0l-.04,.14-.02,.05-.05,.14h0v.02s-.02,.07-.04,.12v.04l-.04,.12-.18,.48c2.17,1.74,4.31,2.49,7.06,2.86,2.21,.27,4.43,.41,6.65,.43h.28c.21,.28,.48,.53,.8,.71,1.16,.71,3.2,1.17,5.78,1.51,2.06,.27,4.48,.44,7.08,.6,5.16,.32,8.63,.2,10.96-.02,.76-.07,1.41-.14,1.94-.23,.39,.05,.76,.07,1.16,.04,1.01-.07,2.29-.34,3.68-.75,1.94-.55,4.13-1.33,6.14-2.13,3.79-1.49,6.99-2.99,6.99-2.99,0,0,5.18-31.79,1.73-55.1-.05-.37-.11-.75-.18-1.12-.02-.12-.04-.23-.05-.36-.04-.25-.09-.52-.12-.76-.02-.14-.05-.28-.07-.41-.04-.23-.07-.48-.12-.71l-.07-.43c-.04-.23-.09-.48-.12-.71l-.07-.41c-.05-.25-.09-.5-.14-.73-.02-.12-.05-.25-.07-.37-.05-.27-.11-.53-.16-.8l-.05-.3c-.07-.34-.14-.66-.2-1-.02-.04-.02-.07-.02-.11-.23-1.14-.48-2.28-.75-3.42l-.04-.12c-.07-.34-.16-.68-.23-1-.02-.05-.02-.11-.04-.14-.07-.32-.16-.66-.23-.98-.02-.05-.02-.09-.04-.14-.09-.34-.16-.68-.25-1.01l-.02-.09c-.28-1.09-.57-2.17-.85-3.24h0l-.02-.07h0l-.27-.53,.27,.53c-.14-.48-.27-.96-.41-1.44h0c.09,.11,.16,.21,.25,.32l.12,.16c.09,.11,.16,.21,.25,.32,.04,.05,.09,.11,.12,.16,.09,.11,.18,.21,.25,.32l.12,.16c.09,.11,.18,.23,.27,.34l.09,.12c.16,.21,.34,.41,.5,.62l.02,.04,.44,.55,.07,.07,.05,.07,.11,.14,.11,.12,.11,.14s.07,.09,.11,.12l.05,.07,.12,.14,.14,.18s.07,.09,.11,.12v.02c.04,.05,.09,.11,.14,.16l.2,.23,.07,.07c.55,.62,1.12,1.26,1.71,1.9l.05,.05s.05,.07,.09,.11l.3,.34,.09,.09,.05,.05c.11,.11,.21,.23,.32,.34l.04,.04,.05,.05,.02,.02c.3,.32,.6,.62,.91,.94l.04,.04c.32,.32,.62,.64,.94,.94h0c7.44,7.33,17.02,14.09,26.38,13.98,15.55-.16,26.24-17.81,30.05-25.37-.94-.6-6.21-2.78-14.46-6.17Zm-121.15,56.87c-.14,.04-.27,.07-.41,.11,.14-.04,.27-.07,.41-.11Zm-.62,.18c-.12,.04-.27,.09-.39,.12,.14-.05,.27-.11,.39-.12h0Zm.69-.2c5.02-1.26,8.13,.53,10.57,2.17-2.44-1.64-5.55-3.43-10.57-2.17h0Zm11.44,2.74c.18,.12,.36,.25,.53,.36-.18-.11-.36-.23-.53-.36Zm-.41-.27l.37,.25-.37-.25Zm28.16-70.43v.04h0c-.02,.07-.02,.16-.04,.23h0c-.05,.34-.11,.68-.16,1.03,0,.05-.02,.11-.02,.14h0c-.04,.25-.07,.5-.12,.76v.04h0c-.04,.23-.07,.46-.11,.69h0c-.02,.09-.04,.18-.05,.28h0c-.02,.07-.04,.16-.04,.23h0c-.02,.07-.02,.14-.04,.21-.04,.2-.07,.39-.11,.59v.04h0c-.02,.09-.04,.18-.04,.27h0s-.02,.07-.02,.11c-.11,.66-.23,1.35-.36,2.06,0,.05-.02,.11-.04,.16h0c-.02,.12-.05,.25-.07,.39-.02,.07-.04,.14-.04,.23h0c-.09,.52-.18,1.03-.28,1.57h0c-.05,.3-.11,.59-.16,.89h0l-.09,.43v.02c-.04,.14-.05,.28-.09,.44-.02,.07-.02,.12-.04,.2v.02c-.05,.27-.11,.53-.16,.82v.04c-.05,.25-.09,.5-.14,.75l-.02,.09c-.05,.25-.09,.5-.14,.75v.05l-.02,.11h0s-.02,.07-.02,.12c-.05,.3-.12,.6-.18,.93-.02,.05-.02,.12-.04,.18h0c-.11,.53-.21,1.07-.3,1.62l-.04,.14c-.16,.8-.3,1.6-.46,2.42-.27,1.41-.55,2.85-.84,4.31,0,.04-.02,.05-.02,.09l-.14,.76v.07c-.05,.25-.09,.52-.14,.76v.07c-.11,.55-.21,1.1-.32,1.65,0,.05-.02,.11-.04,.14-.04,.21-.09,.44-.12,.66-.02,.07-.04,.14-.04,.21l-.11,.59c-.02,.09-.04,.18-.05,.27-.04,.2-.07,.39-.11,.57-.02,.09-.04,.16-.05,.25l-.14,.8h0c-.05,.28-.11,.57-.16,.84v.04l-.04,.14c-.04,.21-.07,.43-.12,.64l-.02,.11c-.02,.05-.02,.12-.04,.18-.04,.18-.07,.36-.09,.53-.02,.09-.04,.16-.05,.25v.04c-.04,.2-.07,.37-.11,.57-.02,.09-.04,.18-.05,.28h0c-.04,.2-.07,.41-.11,.6l-.04,.2v.02l-.14,.82-.02,.07s-.02,.09-.02,.14l-.11,.62c-.02,.09-.04,.2-.05,.28-.04,.18-.07,.36-.11,.55v.02l-.05,.3c-.04,.18-.05,.36-.09,.52-.02,.11-.04,.21-.05,.3-.04,.18-.07,.37-.09,.55,0,.05-.02,.11-.04,.18s-.02,.07-.02,.11l-.14,.82c-.05,.3-.11,.6-.16,.91h0s-.02,.07-.02,.11c-.14,.71-.28,1.44-.44,2.19,0,.04-.02,.05-.02,.09h0c-.05,.25-.11,.52-.18,.78h0c-.02,.07-.04,.12-.04,.2h0c-.07,.3-.14,.62-.21,.94h0c-.02,.09-.04,.18-.07,.28l-.07,.32c-5.43-4.89-13.48-10.76-17.99-12.79,6.28-9.48,8.18-11.9,14.23-19.34,3.36-4.13,8.31-9.73,12.36-14.29-.09,.21-.11,.41-.14,.6h0Z"/>
    </g>
    <g id="Body_Shadow" data-name="Body Shadow">
      <path class="cls-16" d="M328.11,92.59l-.32,.16,.32-.16Z"/>
      <path class="cls-16" d="M327.22,93l-.32,.14,.32-.14Z"/>
      <path class="cls-16" d="M309.25,94.28c-6.94,.36-12.99,5.51-20.1,5.51-15.78,0-29.16-5.03-36.54-11.08-.07-.04-.14-.09-.2-.12-8.18-5.51-8.95-10.35-10.32-12.81-2.03-3.63,.09-7.49-2.29-8.97-5.6-3.47-16.72-35.31-4.8-54.7,1.49-2.42,5.19-4.63,7.28-6.67,1.6-1.58,1.48-3.06,3.36-4.41,15.17-10.85,38.39-14.57,51-10.28-11.56-3.91-14.69-4.82-12.38-6.78,2.19-1.85,23.79-.68,28.86,2.49-5.41-4.04-4.61-7.33-26.24-8.2h-1.01c-24.73,.36-53.23,21.15-58.17,30.78-6.58,12.81-9.25,22.42-3.38,45.72,4.48,17.83,17.06,37.71,43.76,44.65,8.22,2.13,18.11,2.51,29,1.6,10.28-.85,20.33-3.5,29.69-7.83-8.84,2.58-13.38,.89-17.51,1.1Z"/>
      <path class="cls-16" d="M331.47,90.84l.11-.05h0l-.11,.05Z"/>
      <path class="cls-16" d="M328.96,92.16l-.27,.14,.27-.14Z"/>
      <path class="cls-16" d="M330.87,91.16l-.21,.11,.21-.11Z"/>
      <path class="cls-16" d="M329.8,91.73l-.04,.02,.04-.02Z"/>
      <path class="cls-6" d="M238.93,80.26c-1.14-1.3-2.22-2.67-3.24-4.09-.5,.09-1.01,.21-1.51,.34,1.65,2.35,3.49,4.55,5.46,6.64,.46-.21,.94-.39,1.41-.59-.73-.75-1.42-1.51-2.12-2.29Z"/>
      <path class="cls-6" d="M353.19,68.38c-.3,1.41-.78,2.78-1.42,4.06,.66-1.28,1.16-2.65,1.46-4.06h-.04Z"/>
      <path class="cls-6" d="M319.93,94.53c-7.4,2.72-15.12,4.43-22.97,5.09-3.65,.3-7.15,.46-10.41,.46-6.85,0-12.95-.68-18.11-2.01-9.86-2.56-18.32-7.06-25.23-13.43-.46,.21-.93,.44-1.37,.68,6.64,6.21,15.23,11.26,26.24,14.13,5.48,1.42,11.71,2.06,18.47,2.06,3.38,0,6.9-.16,10.53-.46,10.28-.85,20.33-3.5,29.71-7.83-2.26,.66-4.55,1.1-6.87,1.32Z"/>
      <path class="cls-6" d="M232.38,73.82c.52-.09,1.03-.18,1.53-.25-3.75-5.89-6.55-12.35-8.22-19.12-2.81-11.14-3.72-19.25-2.95-26.29,.73-6.69,3.01-12.2,6.21-18.43,2.49-4.86,11.17-12.36,21.13-18.29,7.2-4.29,21.44-11.51,35.79-11.71,.55,0,1.1-.02,1.64-.02,10.73,0,20.53,1.53,29.12,4.57,6.9,2.44,12.97,5.84,17.56,9.86,3.95,3.45,8.04,7.2,10.99,11.9,3.18,5.05,4.73,10.62,4.89,17.49,.18,8.02-.69,15.21-1.55,20.6-.23,3.93-.44,7.38-.32,9.8,.02,.3,.14,.59,.37,.78,.44,1.14,1.6,2.38,2.69,4.23l.14-.09c-1.33-2.35-2.81-3.72-2.92-5.11-.18-2.31,3.38-14.77,3.02-30.24-.36-15.48-7.83-22.95-16.37-30.42-8.34-7.29-23.84-14.78-47.62-14.78-.55,0-1.1,0-1.65,.02-24.73,.36-53.23,21.15-58.17,30.78-6.58,12.81-9.25,22.42-3.38,45.72,1.65,6.69,4.38,13.11,8.06,19Z"/>
      <path class="cls-6" d="M353.46,65.1c-.18-1.49-.55-2.97-1.12-4.38l-.14,.07c.6,1.42,1,2.94,1.16,4.48,.04,.32,.05,.66,.05,.98l.09-.02c.02-.37,0-.76-.04-1.14Z"/>
    </g>
    <g id="whiskers">
      <g>
        <g id="Front_Whiskers" data-name="Front Whiskers">
          <path class="cls-15" d="M241.38,73.64c-7.47-1.6-19.92,2.49-22.77,7.12-1.78,2.49,0,4.09,1.96,2.67s11.69-8.54,20.23-7.47c1.42,.18,1.53-1.9,.59-2.31Z"/>
          <path class="cls-15" d="M242.81,81.88c-9.02,3.2-17.43,9.38-19.34,14.36-.84,2.01,1.19,3.79,2.97,2.01s8.41-9.96,17.31-13.88c1.32-.46,.25-2.72-.94-2.49Z"/>
        </g>
        <g id="Front_Whiskers_Shadow" data-name="Front Whiskers Shadow">
          <path class="cls-16" d="M240.9,75.37c-1.39,.09-2.78,.02-4.16,.05-4.04,.16-7.97,1.33-11.42,3.45-1.39,.85-2.7,1.85-4.23,2.38-.66,.23-1.41,.37-2.01,.05-.21-.12-.39-.3-.5-.52-1.73,2.47,.04,4.06,1.99,2.63s11.69-8.54,20.23-7.47c.68,.09,1.07-.34,1.17-.85-.34,.16-.69,.27-1.07,.27Z"/>
          <path class="cls-16" d="M226.44,98.24c1.78-1.78,8.41-9.96,17.31-13.88,.6-.21,.69-.82,.52-1.37-.39,.53-1.09,.91-1.73,1.17-2.21,.96-4.5,1.81-6.49,3.17-2.69,1.81-4.68,4.47-6.97,6.76-1.1,1.12-2.37,2.21-3.93,2.46-.41,.07-.91,.04-1.17-.28-.14-.18-.23-.39-.27-.6-.09,.2-.18,.39-.25,.57-.8,2.01,1.21,3.79,2.99,2.01Z"/>
        </g>
      </g>
      <g>
        <g id="Back_Whiskers" data-name="Back Whiskers">
          <path class="cls-15" d="M370.34,68.66c-3.33-2.58-12.2-3.08-16.85-2.42-.02,.71-.11,1.44-.27,2.13,5.94-.25,13.68,1.94,15.16,2.6,1.6,.71,2.67-.36,1.96-2.31Z"/>
          <path class="cls-15" d="M366.78,54.96c-2.06-.48-10.26,.89-15.41,3.86,.36,.6,.66,1.25,.94,1.9,4.52-2.28,11.42-2.74,14.11-2.56,2.85,.18,2.67-2.67,.36-3.2Z"/>
        </g>
        <g id="Back_Whiskers_Shadow" data-name="Back Whiskers Shadow">
          <path class="cls-16" d="M370.34,68.66s-.07-.05-.11-.09c-.23,.28-.52,.52-.84,.68-1.12,.55-2.46,.39-3.7,.18-3.04-.52-6.03-1.26-8.97-2.21-.14-.04-.27-.09-.39-.18-.43-.34-.28-.69-.04-1.03-.12,0-.23,0-.36,.02h0c-.16,0-.32,.02-.5,.04h-.09l-.41,.04h-.05c-.16,.02-.32,.04-.46,.04h-.04l-.41,.04h-.05l-.43,.05c-.02,.71-.11,1.44-.27,2.13,.18,0,.37-.02,.55-.02h.59c1.17,.02,2.35,.09,3.52,.23h0c1.39,.16,2.76,.39,4.04,.64h0l.53,.11h0c.71,.14,1.39,.3,2.03,.46h0l.44,.11h.02l.41,.11h.04l.39,.11h.04l.37,.11h.02c.25,.07,.48,.14,.69,.21h.02l.3,.09h.04l.27,.09,.04,.02,.23,.07,.04,.02,.2,.07h.02l.18,.07h.02l.14,.05c1.58,.78,2.65-.28,1.94-2.24Z"/>
          <path class="cls-16" d="M366.73,58.16h.23l.16-.02h.05l.18-.04,.04-.02c.05-.02,.09-.02,.14-.04l.05-.02s.07-.02,.11-.04l.05-.02s.09-.04,.12-.05h.02s.09-.05,.12-.09l.04-.04s.05-.04,.07-.07l.04-.04s.05-.05,.07-.07l.04-.04s.05-.07,.07-.11l.02-.02s.04-.05,.05-.09c0-.02,.02-.02,.02-.04,.02-.02,.02-.05,.04-.09l.02-.04s.02-.05,.04-.09,0-.02,0-.04c.02-.04,.02-.09,.02-.12v-.3s0-.09-.02-.12v-.02s-.02-.07-.02-.11,0-.04-.02-.05-.02-.05-.04-.09c0-.02-.02-.04-.02-.05-.02-.04-.02-.05-.04-.09,0-.02-.02-.04-.02-.04,0,0-.04-.09-.07-.12,0-.02-.02-.02-.02-.04l-.05-.09-.04-.05-.05-.07s-.02-.04-.04-.04-.05-.05-.09-.09l-.02-.02c-.37,.37-.8,.69-1.26,.96-1.1,.62-2.37,.94-3.61,1.17-2.6,.5-5.25,.69-7.88,.59-.23,0-.44-.04-.66-.11-.27-.12-.48-.36-.57-.64h0c-.2,.09-.39,.16-.57,.25l-.2,.09c-.12,.05-.23,.11-.36,.16l-.23,.12-.3,.14-.25,.12-.28,.14-.25,.14-.14,.09c.36,.6,.66,1.25,.94,1.9h0l.32-.16,.12-.05c.11-.05,.21-.09,.3-.14l.14-.07c.11-.04,.2-.09,.3-.12l.16-.07c.11-.04,.2-.07,.3-.12l.18-.07,.3-.11,.18-.05,.32-.11,.18-.05,.32-.09,.2-.05,.32-.09,.2-.05,.34-.09,.18-.05,.32-.07,.18-.04c.11-.04,.21-.05,.34-.07l.18-.04,.34-.07,.16-.04,.36-.07,.12-.02c.12-.02,.25-.05,.39-.07h.02c.46-.07,.93-.14,1.37-.21l.11-.02,.32-.04,.18-.02,.3-.04,.2-.02,.28-.04,.2-.02,.27-.02,.21-.02,.25-.02,.21-.02c.07,0,.16-.02,.23-.02l.21-.02,.21-.02,.21-.02h2.33l.27,.02h.23Z"/>
        </g>
      </g>
    </g>
    <g id="ears">
      <g>
        <g id="Front_Ear" data-name="Front Ear">
          <path class="cls-15" d="M227.33,12.44c-1.78-18.15,10.32-44.12,24.55-46.97,5.51-1.1,19.04,13.52,21.53,19.39,1.07,2.49-3.56,.89-9.25,2.49-5.69,1.6-15.3,8.54-15.66,10.14s1.07,8.18-.36,9.96-8.36,.84-12.33,1.25c-3.88,.41-5.82,1.78-8.49,3.74Z"/>
        </g>
        <g id="Front_Ear_Shadow" data-name="Front Ear Shadow">
          <path class="cls-16" d="M236.44-8.92c-.85-4.15-.75-8.41-.14-12.61-6.21,9.8-10.02,23.25-8.97,33.98,2.67-1.96,4.61-3.33,8.49-3.74,.78-.09,1.67-.11,2.62-.12,.52-.59,1-1.19,1.46-1.81,.98-1.3,2.31-2.29,3.66-3.01-3.77-3.18-6.12-7.85-7.12-12.68Z"/>
          <path class="cls-16" d="M273.49-14.22c-.57,.12-1.26-.16-1.85-.43-1.44-.68-2.99-1.16-4.55-1.42-.25-.02-.5-.11-.71-.23-.18-.14-.32-.32-.43-.53-2.35-3.97-5.3-7.54-8.73-10.64-1.64-1.48-3.7-2.92-5.87-2.51-1.83,.34-3.18,1.96-4.04,3.63-1.07,2.1-1.64,4.41-2.1,6.72-1.19,5.87-1.85,11.83-1.97,17.83-.02,.55-.02,1.1,.16,1.64s.57,1,1.1,1.12c1.44,.34,2.92-.96,3.95-1.9-.05-.52-.04-1.03,.04-1.55,.36-1.6,9.96-8.54,15.66-10.14,4.8-1.35,8.84-.43,9.36-1.58Z"/>
        </g>
      </g>
    </g>
    <g id="eyes-holder">
      <g>
        <path class="cls-10" d="M280.65,64.28c2.51,.09,5.76,.94,7.31,1.57,3.74-2.46,5.71-11.07,3.95-19.55-.41-1.97-1.16-3.77-2.12-5.35-4.11-6.71-12.28-9.45-16.03-4.25-2.69,3.72-2.94,8.89,0,16.85,1.19,3.22,2.67,5.91,4.38,7.97,.89,1.1,1.69,2.03,2.51,2.78Z"/>
        <path class="cls-9" d="M273.67,53.57c-.62-1.67-1.17-3.38-1.58-5.12-.39-1.74-.64-3.54-.57-5.35,.05-1.8,.46-3.61,1.32-5.21,.11-.2,.21-.39,.34-.59l.37-.57c.05-.09,.12-.2,.2-.28l.21-.27c.14-.18,.3-.34,.46-.5,.66-.64,1.46-1.14,2.31-1.46,.87-.3,1.8-.43,2.7-.39,.91,.04,1.81,.23,2.67,.52,1.73,.57,3.29,1.55,4.64,2.74s2.49,2.62,3.4,4.18c.89,1.57,1.53,3.27,1.87,5.03l-.2,.04c-.73-1.65-1.55-3.2-2.6-4.54-1.03-1.35-2.21-2.56-3.5-3.52l-.5-.36c-.16-.11-.34-.21-.5-.34l-.52-.32-.52-.28c-.71-.36-1.42-.68-2.15-.87-.73-.21-1.46-.34-2.15-.36-.69-.02-1.37,.09-1.97,.3-.6,.21-1.16,.55-1.62,1l-.36,.36-.16,.2-.09,.09s-.05,.07-.09,.11l-.32,.46-.28,.48c-.11,.16-.18,.32-.27,.5-.09,.16-.18,.34-.25,.52l-.21,.53-.18,.55c-.07,.18-.11,.37-.16,.57-.05,.2-.11,.37-.12,.57l-.11,.59c-.04,.2-.05,.41-.07,.6-.2,1.62-.12,3.33,.04,5.05,.16,1.74,.46,3.49,.73,5.28l-.21,.07Z"/>
        <path class="cls-12" d="M278.14,61.51c-1.3-1.42-2.37-3.06-3.26-4.79-.44-.85-.85-1.74-1.23-2.63-.2-.44-.36-.91-.52-1.35-.18-.44-.32-.91-.48-1.37-.07-.23-.16-.46-.23-.69l-.21-.69c-.14-.46-.25-.94-.37-1.41-.12-.46-.2-.96-.3-1.44-.05-.23-.07-.48-.11-.73-.04-.25-.07-.48-.11-.73l-.07-.73c-.02-.12-.02-.25-.04-.37v-.37c0-.25-.02-.5-.02-.75l.04-.75c.07-.98,.21-1.97,.5-2.94,.3-.96,.71-1.87,1.25-2.72,.52-.85,1.21-1.65,2.05-2.24,.43-.28,.87-.55,1.35-.71,.23-.11,.48-.16,.73-.25,.12-.04,.25-.05,.37-.09l.18-.04,.2-.04,.37-.05,.37-.02,.2-.02h.57c.5,.04,1,.09,1.49,.21,.98,.21,1.9,.57,2.78,1.03,.87,.46,1.69,1.01,2.44,1.64,1.49,1.25,2.76,2.78,3.68,4.47-1.09-1.58-2.42-3.01-3.95-4.13-.76-.57-1.58-1.05-2.44-1.46-.43-.2-.87-.37-1.3-.52-.44-.14-.89-.27-1.35-.34-.46-.09-.93-.12-1.37-.14h-.52l-.18,.02-.34,.04-.34,.05-.12,.04-.16,.04c-.11,.04-.21,.05-.34,.09-.21,.07-.43,.12-.64,.23-.43,.16-.8,.39-1.17,.66-.18,.14-.36,.27-.52,.43-.09,.07-.18,.14-.25,.23l-.23,.25c-.07,.07-.14,.18-.21,.27l-.21,.27-.37,.57c-.48,.78-.85,1.64-1.14,2.53-.28,.89-.41,1.81-.48,2.74l-.04,.69v1.07c0,.12,.02,.23,.02,.36l.05,.71c.18,1.89,.62,3.74,1.14,5.57,.55,1.83,1.16,3.65,1.96,5.39,.8,1.71,1.74,3.38,2.88,4.93Z"/>
        <path class="cls-10" d="M329.16,58.22c1.17-1.39,2.22-3.22,3.1-5.32,2.86-6.96,3.82-16.86-.68-21.69-3.5-3.77-8.45,.14-10.64,5.66-.75,1.9-1.32,3.81-1.64,5.28-1.25,5.78-.41,16.14,1.78,18.32,1.41,1.41,3.33,.96,4.73,.32,.94-.89,2.08-1.8,3.34-2.58Z"/>
        <path class="cls-9" d="M332.15,52.86c.25-1.57,.5-3.08,.66-4.61,.16-1.51,.28-3.01,.3-4.5,.04-1.48-.02-2.95-.18-4.38-.09-.71-.2-1.41-.34-2.1-.14-.68-.34-1.33-.57-1.97-.23-.64-.5-1.23-.84-1.78l-.25-.41-.27-.39-.3-.37c-.11-.11-.18-.21-.28-.3-.2-.2-.39-.36-.59-.48-.21-.11-.41-.23-.62-.28s-.46-.09-.71-.09-.52,.04-.8,.11c-.28,.09-.57,.18-.85,.3-.28,.14-.59,.3-.87,.48-.57,.36-1.14,.8-1.67,1.32-1.09,1-2.03,2.19-2.94,3.49l-.18-.07c.57-1.46,1.32-2.83,2.29-4.07,.48-.62,1.03-1.19,1.64-1.69,.6-.5,1.28-.93,2.03-1.21,.37-.14,.76-.23,1.17-.28,.41-.04,.8-.04,1.21,.04,.39,.07,.78,.21,1.14,.39,.36,.2,.69,.43,.98,.69,1.17,1.09,1.99,2.49,2.54,3.95,.27,.75,.48,1.49,.62,2.28,.14,.76,.25,1.55,.3,2.33,.05,.78,.07,1.57,.05,2.35s-.07,1.57-.16,2.33c-.09,.78-.2,1.55-.34,2.31s-.3,1.53-.5,2.28c-.39,1.51-.89,2.99-1.49,4.41l-.2-.05Z"/>
        <path class="cls-12" d="M332.25,52.9c1-2.94,1.65-5.98,1.92-9.02,.12-1.53,.16-3.06,.02-4.57-.07-.76-.16-1.51-.32-2.26s-.36-1.46-.62-2.17c-.25-.71-.57-1.39-.96-2.01l-.3-.46-.34-.44-.36-.43c-.12-.12-.25-.27-.37-.39-.27-.25-.55-.44-.85-.62-.3-.16-.64-.28-.98-.36s-.69-.09-1.05-.05-.71,.12-1.05,.23c-.69,.25-1.33,.62-1.92,1.09-.6,.46-1.14,1-1.64,1.57-1,1.16-1.81,2.47-2.49,3.88,.48-1.48,1.21-2.88,2.15-4.15,.48-.62,1.01-1.23,1.62-1.74,.6-.53,1.3-.96,2.05-1.28,.39-.14,.78-.27,1.21-.32s.85-.04,1.26,.04c.43,.07,.84,.21,1.21,.41,.37,.2,.73,.44,1.05,.71,.16,.14,.3,.28,.44,.43l.41,.46,.37,.48c.11,.16,.23,.34,.34,.5,.43,.69,.78,1.42,1.05,2.17,.55,1.51,.84,3.1,.94,4.66,.05,.78,.05,1.58,.04,2.37-.02,.39-.04,.78-.07,1.17-.04,.39-.07,.78-.12,1.17-.2,1.57-.52,3.1-.94,4.59-.48,1.49-1.01,2.97-1.69,4.36Z"/>
        <path class="cls-12" d="M323.75,63.06c.6-.98,1.37-1.85,2.19-2.65,.82-.8,1.74-1.53,2.7-2.17,.23-.16,.5-.3,.75-.44,.12-.07,.25-.14,.37-.21l.39-.2,.39-.2c.12-.05,.27-.11,.39-.18,.27-.11,.53-.23,.8-.32,1.09-.39,2.24-.64,3.38-.66-1.12,.23-2.21,.59-3.24,1.05-.27,.11-.52,.23-.76,.36-.12,.05-.25,.12-.37,.18l-.37,.21-.37,.2c-.12,.07-.25,.14-.36,.21-.25,.14-.48,.28-.71,.44-.48,.3-.94,.62-1.39,.96-.46,.34-.89,.69-1.33,1.05-.85,.75-1.67,1.53-2.45,2.37Z"/>
        <g>
          <ellipse class="cls-14" cx="322.81" cy="51.23" rx="9.93" ry="4.66" transform="translate(251.02 370.1) rotate(-86.33)"/>
          <path class="cls-19" d="M323.31,41.26v.89h.09c1.78,.11,3.52,3.95,3.18,9.27-.16,2.47-.75,4.77-1.65,6.46-.8,1.48-1.74,2.33-2.6,2.33h-.09c-1.78-.11-3.52-3.95-3.18-9.27,.16-2.47,.75-4.77,1.65-6.46,.8-1.48,1.74-2.33,2.6-2.33v-.89m0,0c-2.51,0-4.8,4.25-5.14,9.62-.36,5.48,1.44,10.05,4.02,10.21h.14c2.51,0,4.8-4.25,5.14-9.62,.36-5.48-1.44-10.05-4.02-10.21h-.14Z"/>
        </g>
        <g>
          <ellipse class="cls-14" cx="282.45" cy="53.77" rx="6.23" ry="10.5" transform="translate(-4.88 43.27) rotate(-8.69)"/>
          <path class="cls-14" d="M281.46,43.36v.89c1.28,0,2.62,.84,3.77,2.37,1.25,1.64,2.15,3.9,2.53,6.37,.39,2.62,.18,5.16-.62,7.15-.75,1.83-1.87,2.95-3.2,3.15-.14,.02-.28,.04-.43,.04-1.28,0-2.62-.84-3.77-2.37-1.25-1.64-2.15-3.9-2.53-6.37-.78-5.14,.96-9.87,3.82-10.3,.14-.02,.28-.04,.43-.04v-.89m0,0c-.2,0-.37,.02-.57,.04-3.4,.52-5.44,5.59-4.57,11.31,.82,5.41,3.97,9.48,7.17,9.48,.2,0,.37-.02,.57-.04,3.4-.52,5.44-5.59,4.57-11.31-.84-5.43-3.97-9.48-7.17-9.48h0Z"/>
          <path class="cls-19" d="M281.46,43.36v.89c1.28,0,2.62,.84,3.77,2.37,1.25,1.64,2.15,3.9,2.53,6.37,.39,2.62,.18,5.16-.62,7.15-.75,1.83-1.87,2.95-3.2,3.15-.14,.02-.28,.04-.43,.04-1.28,0-2.62-.84-3.77-2.37-1.25-1.64-2.15-3.9-2.53-6.37-.78-5.14,.96-9.87,3.82-10.3,.14-.02,.28-.04,.43-.04v-.89m0,0c-.2,0-.37,.02-.57,.04-3.4,.52-5.44,5.59-4.57,11.31,.82,5.41,3.97,9.48,7.17,9.48,.2,0,.37-.02,.57-.04,3.4-.52,5.44-5.59,4.57-11.31-.84-5.43-3.97-9.48-7.17-9.48h0Z"/>
        </g>
        <path class="cls-12" d="M288.62,66.17c-.41-.16-.84-.28-1.28-.41-.43-.12-.85-.21-1.3-.32-.43-.09-.85-.2-1.3-.28-.43-.09-.87-.18-1.3-.27-.43-.09-.87-.16-1.3-.21-.43-.07-.87-.12-1.32-.16s-.87-.07-1.32-.07-.87,.04-1.32,.12c.39-.21,.85-.32,1.3-.39s.91-.09,1.35-.09,.91,.04,1.35,.09,.89,.12,1.33,.2c.89,.18,1.76,.39,2.62,.68,.43,.14,.85,.3,1.26,.48,.43,.18,.85,.37,1.21,.64Z"/>
        <ellipse class="cls-5" cx="283.32" cy="45.48" rx="1.48" ry="3.68" transform="translate(-3.18 61.48) rotate(-12.32)"/>
        <ellipse class="cls-5" cx="324.95" cy="43.1" rx="1.48" ry="3.68" transform="translate(-.65 5.19) rotate(-.91)"/>
      </g>
    </g>
    <g id="mouths-holder">
      <g>
        <path class="cls-12" d="M289.54,73.69c-.36,.28-.76,.5-1.19,.68s-.87,.3-1.32,.39-.91,.14-1.35,.14-.91-.04-1.35-.14c.44-.11,.89-.2,1.32-.27l1.3-.25c.43-.09,.85-.18,1.28-.27,.43-.09,.85-.2,1.32-.28Z"/>
        <path class="cls-12" d="M287.99,74.14c1.41,1.1,2.95,2.03,4.57,2.78,1.62,.75,3.33,1.33,5.07,1.76s3.52,.68,5.3,.76c1.78,.07,3.58-.04,5.34-.32,1.76-.27,3.49-.76,5.16-1.42,1.67-.64,3.27-1.46,4.8-2.42,.39-.23,.75-.5,1.12-.75,.2-.12,.37-.25,.55-.39l.55-.41c.71-.53,1.41-1.12,2.08-1.73,.34-.3,.66-.62,.98-.93l.46-.48,.23-.25,.23-.25c.14-.18,.3-.34,.44-.52l.41-.53c.14-.18,.25-.37,.39-.55,.07-.09,.12-.2,.18-.28l.16-.28,.3,.12c-.39,.87-.93,1.62-1.49,2.35l-.21,.27-.23,.27-.44,.52c-.32,.34-.62,.68-.96,1-.66,.64-1.35,1.26-2.06,1.85l-.55,.43c-.18,.14-.36,.28-.55,.43-.37,.27-.75,.55-1.14,.8l-1.17,.75-1.21,.68c-.2,.12-.41,.21-.62,.32l-.62,.3c-.41,.21-.85,.37-1.28,.55-1.73,.69-3.5,1.25-5.35,1.55-1.83,.3-3.7,.44-5.55,.36s-3.7-.37-5.5-.84c-1.8-.46-3.56-1.1-5.21-1.92-1.65-.84-3.26-1.81-4.66-3.04l.5-.52Z"/>
        <path class="cls-17" d="M287.85,74.32c.44,.18,.84,.39,1.28,.55l.62,.27c.21,.09,.43,.16,.64,.23,.21,.07,.41,.16,.62,.23l.64,.21c.41,.14,.84,.27,1.26,.39,1.69,.48,3.38,.85,5.07,1.1l.62,.09,.64,.05c.21,.02,.43,.05,.62,.07,.21,.04,.43,.04,.62,.05l.62,.04c.11,0,.21,.02,.32,.02h.32c.43,0,.84,.02,1.25,.02,.41-.02,.84-.02,1.25-.04,.21,0,.41-.02,.62-.04l.62-.05c.41-.02,.82-.07,1.23-.12l.62-.07c.21-.02,.41-.07,.6-.11,.41-.07,.82-.12,1.23-.21s.8-.2,1.21-.28c.2-.04,.41-.11,.6-.16l.6-.18c.2-.05,.39-.11,.6-.18,.2-.07,.39-.14,.59-.21,1.58-.55,3.13-1.21,4.66-1.99,1.53-.78,3.02-1.69,4.48-2.67,.37-.25,.71-.52,1.09-.76l.53-.41,.27-.2,.27-.21,.53-.43,.52-.44c.18-.14,.34-.3,.5-.46,.09-.07,.16-.16,.23-.25l.23-.25,.25,.11-.16,.32c-.05,.11-.11,.21-.16,.3-.12,.2-.25,.39-.37,.59l-.41,.57c-.14,.18-.28,.36-.43,.53l-.21,.27-.23,.25-.46,.52c-.32,.32-.64,.66-.96,.98-1.33,1.26-2.78,2.4-4.31,3.42s-3.17,1.87-4.87,2.56c-1.71,.68-3.49,1.23-5.3,1.51-1.81,.28-3.66,.41-5.5,.32-1.83-.11-3.66-.37-5.44-.84-1.78-.44-3.52-1.07-5.18-1.87-1.65-.82-3.22-1.8-4.63-2.99l.12-.14Z"/>
        <path class="cls-17" d="M287.9,74.25c1.37,1.16,2.94,2.1,4.57,2.88s3.34,1.39,5.11,1.83,3.56,.69,5.35,.78c1.81,.07,3.63-.05,5.41-.34,1.8-.28,3.52-.8,5.21-1.48,1.67-.68,3.29-1.49,4.8-2.49s2.95-2.12,4.27-3.36c.34-.3,.64-.64,.96-.96l.46-.5,.23-.25,.21-.27c.14-.18,.28-.34,.43-.52l.39-.53c.12-.18,.25-.37,.37-.55,.07-.09,.11-.2,.16-.28l.16-.28,.41,.18-.12,.34c-.04,.11-.09,.23-.14,.34-.11,.21-.21,.43-.32,.64l-.36,.6c-.12,.2-.27,.39-.39,.59l-.2,.28-.21,.28-.43,.57c-.3,.36-.59,.73-.91,1.07-.64,.69-1.3,1.37-1.99,2.01l-.53,.46c-.18,.16-.36,.3-.55,.44-.37,.28-.75,.59-1.12,.87l-1.17,.82c-.41,.25-.8,.5-1.21,.75-.2,.12-.41,.23-.62,.36l-.64,.34c-.41,.23-.85,.43-1.3,.62-1.76,.78-3.61,1.41-5.51,1.74l-.36,.07c-.12,.02-.23,.05-.36,.05l-.73,.09c-.48,.07-.96,.14-1.44,.16l-.73,.05c-.25,.02-.48,.04-.73,.04h-1.46c-.48-.02-.98-.05-1.46-.09l-.36-.04-.36-.05-.73-.09c-.23-.04-.48-.05-.71-.11l-.71-.14-.71-.14c-.23-.05-.46-.12-.71-.18-1.87-.48-3.68-1.25-5.32-2.28-.41-.27-.82-.52-1.19-.84-.39-.28-.76-.6-1.1-.94-.18-.18-.36-.32-.52-.52-.16-.18-.32-.36-.48-.55-.07-.09-.16-.18-.23-.28-.07-.11-.14-.2-.21-.3-.14-.2-.28-.39-.41-.6l.23-.3Z"/>
        <path class="cls-12" d="M323.8,67.95c.48,.05,.94,.02,1.41-.02,.46-.05,.93-.11,1.41-.16,.46-.05,.94-.09,1.42-.11s.98-.02,1.46,.11l-1.41,.3c-.46,.09-.94,.18-1.42,.23s-.96,.07-1.46,.04c-.46-.04-.98-.12-1.41-.39Z"/>
      </g>
    </g>
  </g>
</svg>
